<svg width="127" height="61" viewBox="0 0 127 61" fill="none" xmlns="http://www.w3.org/2000/svg">
<g clip-path="url(#clip0_9_77)">
<path d="M14.2506 26.2755C21.536 26.2755 26.6687 30.8082 27.0806 37.563V41.8241H5.40733C6.41592 45.8588 10.2637 48.5336 15.0761 48.5336C19.2918 48.5336 23.6905 47.3094 26.0738 45.4966V50.1652C22.821 51.8874 18.4222 53.0211 15.0761 53.0211C6.04804 53.0211 0 47.6716 0 39.6021C0 31.5326 5.68192 26.2737 14.2506 26.2737V26.2755ZM21.8106 37.7441C21.5818 33.3019 18.512 30.446 14.0657 30.446C9.61948 30.446 6.04628 33.3019 5.31404 37.7441H21.8124H21.8106Z" fill="white"/>
<path d="M35.7795 26.9999V32.123C37.9323 28.6333 41.9191 26.2755 45.7229 26.2755C53.8796 26.2755 59.0564 31.7155 59.0564 39.6039C59.0564 47.4922 54.0152 52.9323 46.1348 52.9323C41.8733 52.9323 37.7492 50.8478 35.7795 47.6733V61.0017H30.0518V26.9999H35.7795ZM53.3745 39.421C53.3745 34.3432 50.0759 30.944 44.8058 30.944C39.5358 30.944 35.9626 34.526 35.9626 38.7872V40.1924C35.9626 44.5441 39.4918 48.2166 44.8058 48.2166C50.1199 48.2166 53.3745 44.6799 53.3745 39.4228V39.421Z" fill="white"/>
<path d="M68.1161 26.9999V32.123C70.2706 28.6333 74.2557 26.2755 78.0595 26.2755C86.2162 26.2755 91.393 31.7155 91.393 39.6039C91.393 47.4922 86.3518 52.9323 78.4713 52.9323C74.2099 52.9323 70.0858 50.8478 68.1161 47.6733V61.0017H62.3884V26.9999H68.1161ZM85.711 39.421C85.711 34.3432 82.4124 30.944 77.1424 30.944C71.8724 30.944 68.2992 34.526 68.2992 38.7872V40.1924C68.2992 44.5441 71.8284 48.2166 77.1424 48.2166C82.4564 48.2166 85.711 44.6799 85.711 39.4228V39.421Z" fill="white"/>
<path d="M111.176 36.3388H114.429C114.383 33.1208 111.45 30.9441 107.509 30.9441C102.882 30.9441 98.2067 32.621 95.2742 35.1599V30.2179C98.1152 27.8601 103.339 26.2737 108.059 26.2737C115.252 26.2737 119.468 30.7159 119.514 37.0179L119.468 52.1591H114.612L114.474 46.6738C113.374 50.3916 108.609 52.8835 102.561 52.8835C96.5134 52.8835 92.8927 49.9371 92.9384 45.5402C93.0299 40.0096 100.729 36.3371 111.176 36.3371V36.3388ZM113.879 40.283H111.588C103.66 40.283 98.344 42.2316 98.344 44.9969C98.344 51.0255 113.878 48.5788 113.878 40.283H113.879Z" fill="white"/>
<path d="M127 28.1474C127 29.9062 125.604 31.2871 123.788 31.2871C121.971 31.2871 120.556 29.9062 120.556 28.1474C120.556 26.3886 121.99 25.0461 123.788 25.0461C125.585 25.0461 127 26.427 127 28.1474ZM121.36 28.1474C121.36 29.5283 122.394 30.6254 123.807 30.6254C125.22 30.6254 126.197 29.5283 126.197 28.1666C126.197 26.8048 125.183 25.6695 123.788 25.6695C122.392 25.6695 121.36 26.7857 121.36 28.1474ZM123.291 29.7739H122.564V26.6725C122.851 26.615 123.253 26.5785 123.768 26.5785C124.361 26.5785 124.629 26.6725 124.858 26.8048C125.03 26.9372 125.164 27.1827 125.164 27.4857C125.164 27.827 124.897 28.0917 124.515 28.2049V28.2432C124.821 28.3564 124.993 28.5845 125.088 29.0007C125.183 29.4743 125.242 29.6624 125.317 29.7756H124.534C124.439 29.6624 124.381 29.3786 124.286 29.0198C124.228 28.6785 124.038 28.5288 123.636 28.5288H123.291V29.7773V29.7739ZM123.311 28.0151H123.654C124.055 28.0151 124.381 27.8827 124.381 27.5606C124.381 27.2767 124.171 27.0869 123.712 27.0869C123.52 27.0869 123.386 27.1061 123.311 27.1252V28.0151Z" fill="white"/>
<path d="M60.9007 17.9604C62.6806 15.9896 59.7554 10.5309 54.367 5.76804C48.9786 1.00517 43.1676 -1.25826 41.3877 0.712526C39.6078 2.68331 42.5331 8.14201 47.9214 12.9049C53.3098 17.6678 59.1208 19.9312 60.9007 17.9604Z" fill="white"/>
<path d="M79.0771 12.9034C84.4654 8.14056 87.3907 2.68186 85.6108 0.711076C83.8309 -1.25971 78.0199 1.00373 72.6315 5.76659C67.2431 10.5295 64.3179 15.9882 66.0978 17.959C67.8777 19.9297 73.6887 17.6663 79.0771 12.9034Z" fill="white"/>
</g>
<defs>
<clipPath id="clip0_9_77">
<rect width="127" height="61" fill="white"/>
</clipPath>
</defs>
</svg>
