<svg width="127" height="61" fill="none" xmlns="http://www.w3.org/2000/svg"><g clip-path="url(#a)" fill="#fff"><path d="M14.25 26.276c7.286 0 12.419 4.532 12.83 11.287v4.261H5.408c1.009 4.035 4.857 6.71 9.67 6.71 4.215 0 8.614-1.225 10.997-3.037v4.668c-3.253 1.722-7.652 2.856-10.998 2.856C6.048 53.021 0 47.671 0 39.602c0-8.07 5.682-13.328 14.25-13.328v.002zm7.56 11.468c-.228-4.442-3.298-7.298-7.744-7.298-4.447 0-8.02 2.856-8.752 7.298h16.498-.001zM35.78 27v5.123c2.152-3.49 6.14-5.847 9.943-5.847 8.157 0 13.333 5.44 13.333 13.328 0 7.888-5.04 13.328-12.921 13.328-4.262 0-8.386-2.084-10.355-5.259v13.329h-5.728V27h5.727zM53.373 39.42c0-5.078-3.298-8.477-8.568-8.477s-8.843 3.582-8.843 7.843v1.405c0 4.352 3.529 8.025 8.843 8.025s8.569-3.537 8.569-8.794v-.002zM68.116 27v5.123c2.155-3.49 6.14-5.847 9.944-5.847 8.156 0 13.333 5.44 13.333 13.328 0 7.888-5.041 13.328-12.922 13.328-4.261 0-8.385-2.084-10.355-5.259v13.329h-5.728V27h5.728zM85.711 39.42c0-5.078-3.299-8.477-8.569-8.477-5.27 0-8.843 3.582-8.843 7.843v1.405c0 4.352 3.53 8.025 8.843 8.025 5.314 0 8.569-3.537 8.569-8.794v-.002zM111.176 36.339h3.253c-.046-3.218-2.979-5.395-6.92-5.395-4.627 0-9.302 1.677-12.235 4.216v-4.942c2.841-2.358 8.065-3.944 12.785-3.944 7.193 0 11.409 4.442 11.455 10.744l-.046 15.141h-4.856l-.138-5.485c-1.1 3.718-5.865 6.21-11.913 6.21s-9.668-2.947-9.623-7.344c.092-5.53 7.791-9.203 18.238-9.203v.002zm2.703 3.944h-2.291c-7.928 0-13.244 1.949-13.244 4.714 0 6.029 15.534 3.582 15.534-4.714h.001zM127 28.147c0 1.76-1.396 3.14-3.212 3.14-1.817 0-3.232-1.38-3.232-3.14 0-1.758 1.434-3.1 3.232-3.1 1.797 0 3.212 1.38 3.212 3.1zm-5.64 0c0 1.381 1.034 2.478 2.447 2.478s2.39-1.097 2.39-2.458c0-1.362-1.014-2.498-2.409-2.498-1.396 0-2.428 1.117-2.428 2.478zm1.931 1.627h-.727v-3.102a6.366 6.366 0 0 1 1.204-.094c.593 0 .861.095 1.09.227a.856.856 0 0 1 .306.68c0 .342-.267.607-.649.72v.038c.306.113.478.341.573.758.095.473.154.661.229.775h-.783c-.095-.114-.153-.397-.248-.756-.058-.341-.248-.491-.65-.491h-.345v1.248-.003zm.02-1.759h.343c.401 0 .727-.132.727-.454 0-.284-.21-.474-.669-.474-.192 0-.326.02-.401.038v.89zM60.9 17.96c1.78-1.97-1.145-7.43-6.533-12.192-5.388-4.763-11.2-7.026-12.98-5.055-1.78 1.97 1.146 7.429 6.534 12.192 5.389 4.763 11.2 7.026 12.98 5.055zM79.077 12.903C84.465 8.141 87.391 2.682 85.611.711c-1.78-1.97-7.591.293-12.98 5.056-5.388 4.763-8.313 10.221-6.533 12.192 1.78 1.97 7.59-.293 12.98-5.056z"/></g><defs><clipPath id="a"><path fill="#fff" d="M0 0h127v61H0z"/></clipPath></defs></svg>