<svg width="1389" height="43" fill="none" xmlns="http://www.w3.org/2000/svg"><g filter="url(#a)" fill="#000"><path d="M694 10.077c-6.268 0-11.354 5.11-11.354 11.434 0 6.325 5.086 11.434 11.354 11.434 6.268 0 11.354-5.109 11.354-11.434 0-6.324-5.086-11.434-11.354-11.434zm0 18.524c-3.904 0-7.049-3.173-7.049-7.09 0-3.916 3.168-7.09 7.049-7.09 3.881 0 7.049 3.174 7.049 7.09 0 3.917-3.168 7.09-7.049 7.09z"/><path d="M694 14.399c-3.904 0-7.049 3.173-7.049 7.09 0 3.916 3.168 7.09 7.049 7.09 3.881 0 7.049-3.174 7.049-7.09 0-3.917-3.168-7.09-7.049-7.09z"/><path d="M694 4c-9.592 0-17.377 7.855-17.377 17.489 0 9.633 7.807 17.488 17.377 17.488 9.57 0 17.377-7.855 17.377-17.488C711.377 11.855 703.57 4 694 4zm0 28.923c-6.268 0-11.354-5.11-11.354-11.434 0-6.325 5.086-11.434 11.354-11.434 6.268 0 11.354 5.109 11.354 11.434 0 6.325-5.086 11.434-11.354 11.434z"/></g><g filter="url(#b)" fill="#000"><path d="M72.996 20.724c-3.101 0-6.224-.923-8.7-2.837-1.83-1.418-3.48-3.33-4.305-5.964-2.12 3.466-5.31 5.672-8.544 7.045-4.975-2.25-10.93-6.37-13.295-13.663-4.885 8.08-13.429 12.132-20.723 14.158C10.089 21.466 4 21.466 4 21.466s6.09 0 13.429 2.049c7.294 2.003 15.838 6.032 20.723 14.157 2.365-7.293 8.32-11.411 13.295-13.707 3.234 1.418 6.424 3.623 8.544 7.09.624-1.959 1.695-3.534 2.944-4.794 2.7-2.656 6.38-4.007 10.15-4.007l-.09-1.53z"/><path d="M58.518 18.45v6.077h624.128V18.45H58.518z"/></g><g filter="url(#c)" fill="#000"><path d="M1370.59 19.486c-7.29-2.049-15.83-6.078-20.72-14.158-2.36 7.293-8.32 11.412-13.29 13.662-3.24-1.373-6.43-3.578-8.55-7.045-.82 2.634-2.47 4.547-4.3 5.965-2.48 1.913-5.6 2.836-8.7 2.836l-.09 1.53c3.77 0 7.45 1.329 10.15 4.007 1.25 1.26 2.32 2.836 2.94 4.794 2.12-3.466 5.31-5.672 8.55-7.09 4.97 2.296 10.93 6.415 13.29 13.708 4.89-8.126 13.43-12.155 20.72-14.158 7.34-2.048 13.43-2.048 13.43-2.048s-6.09 0-13.43-2.003z"/><path d="M1329.5 18.45H705.376v6.077H1329.5V18.45z"/></g><path d="M694 10.077c-6.268 0-11.354 5.11-11.354 11.434 0 6.325 5.086 11.434 11.354 11.434 6.268 0 11.354-5.109 11.354-11.434 0-6.324-5.086-11.434-11.354-11.434zm0 18.524c-3.904 0-7.049-3.173-7.049-7.09 0-3.916 3.168-7.09 7.049-7.09 3.881 0 7.049 3.174 7.049 7.09 0 3.917-3.168 7.09-7.049 7.09z" fill="#fff"/><path d="M694 14.399c-3.904 0-7.049 3.173-7.049 7.09 0 3.916 3.168 7.09 7.049 7.09 3.881 0 7.049-3.174 7.049-7.09 0-3.917-3.168-7.09-7.049-7.09z" fill="#fff"/><path d="M694 4c-9.592 0-17.377 7.855-17.377 17.489 0 9.633 7.807 17.488 17.377 17.488 9.57 0 17.377-7.855 17.377-17.488C711.377 11.855 703.57 4 694 4zm0 28.923c-6.268 0-11.354-5.11-11.354-11.434 0-6.325 5.086-11.434 11.354-11.434 6.268 0 11.354 5.109 11.354 11.434 0 6.325-5.086 11.434-11.354 11.434zM72.996 20.724c-3.101 0-6.224-.923-8.7-2.837-1.83-1.418-3.48-3.33-4.305-5.964-2.12 3.466-5.31 5.672-8.544 7.045-4.975-2.25-10.93-6.37-13.295-13.663-4.885 8.08-13.429 12.132-20.723 14.158C10.089 21.466 4 21.466 4 21.466s6.09 0 13.429 2.049c7.294 2.003 15.838 6.032 20.723 14.157 2.365-7.293 8.32-11.411 13.295-13.707 3.234 1.418 6.424 3.623 8.544 7.09.624-1.959 1.695-3.534 2.944-4.794 2.7-2.656 6.38-4.007 10.15-4.007l-.09-1.53z" fill="#fff"/><path d="M58.518 18.45v6.077h624.128V18.45H58.518zM1370.59 19.486c-7.29-2.049-15.83-6.078-20.72-14.158-2.36 7.293-8.32 11.412-13.29 13.662-3.24-1.373-6.43-3.578-8.55-7.045-.82 2.634-2.47 4.547-4.3 5.965-2.48 1.913-5.6 2.836-8.7 2.836l-.09 1.53c3.77 0 7.45 1.329 10.15 4.007 1.25 1.26 2.32 2.836 2.94 4.794 2.12-3.466 5.31-5.672 8.55-7.09 4.97 2.296 10.93 6.415 13.29 13.708 4.89-8.126 13.43-12.155 20.72-14.158 7.34-2.048 13.43-2.048 13.43-2.048s-6.09 0-13.43-2.003z" fill="#fff"/><path d="M1329.5 18.45H705.376v6.077H1329.5V18.45z" fill="#fff"/><defs><filter id="a" x="672.623" y="0" width="42.754" height="42.977" filterUnits="userSpaceOnUse" color-interpolation-filters="sRGB"><feFlood flood-opacity="0" result="BackgroundImageFix"/><feBlend in="SourceGraphic" in2="BackgroundImageFix" result="shape"/><feGaussianBlur stdDeviation="2" result="effect1_foregroundBlur_0_1"/></filter><filter id="b" x="0" y="1.305" width="686.646" height="40.367" filterUnits="userSpaceOnUse" color-interpolation-filters="sRGB"><feFlood flood-opacity="0" result="BackgroundImageFix"/><feBlend in="SourceGraphic" in2="BackgroundImageFix" result="shape"/><feGaussianBlur stdDeviation="2" result="effect1_foregroundBlur_0_1"/></filter><filter id="c" x="701.376" y="1.328" width="686.646" height="40.367" filterUnits="userSpaceOnUse" color-interpolation-filters="sRGB"><feFlood flood-opacity="0" result="BackgroundImageFix"/><feBlend in="SourceGraphic" in2="BackgroundImageFix" result="shape"/><feGaussianBlur stdDeviation="2" result="effect1_foregroundBlur_0_1"/></filter></defs></svg>