<svg width="1389" height="43" viewBox="0 0 1389 43" fill="none" xmlns="http://www.w3.org/2000/svg">
<g filter="url(#filter0_f_0_1)">
<path d="M694 10.0771C687.732 10.0771 682.646 15.1865 682.646 21.5112C682.646 27.836 687.732 32.9453 694 32.9453C700.268 32.9453 705.354 27.836 705.354 21.5112C705.354 15.1865 700.268 10.0771 694 10.0771V10.0771ZM694 28.6013C690.096 28.6013 686.951 25.4276 686.951 21.5112C686.951 17.5948 690.119 14.4212 694 14.4212C697.881 14.4212 701.049 17.5948 701.049 21.5112C701.049 25.4276 697.881 28.6013 694 28.6013Z" fill="black"/>
<path d="M694 14.3987C690.096 14.3987 686.951 17.5724 686.951 21.4888C686.951 25.4052 690.119 28.5788 694 28.5788C697.881 28.5788 701.049 25.4052 701.049 21.4888C701.049 17.5724 697.881 14.3987 694 14.3987V14.3987Z" fill="black"/>
<path d="M694 4C684.408 4 676.623 11.8553 676.623 21.4887C676.623 31.1222 684.43 38.9775 694 38.9775C703.57 38.9775 711.377 31.1222 711.377 21.4887C711.377 11.8553 703.57 4 694 4ZM694 32.9228C687.732 32.9228 682.646 27.8135 682.646 21.4887C682.646 15.164 687.732 10.0547 694 10.0547C700.268 10.0547 705.354 15.164 705.354 21.4887C705.354 27.8135 700.268 32.9228 694 32.9228Z" fill="black"/>
</g>
<g filter="url(#filter1_f_0_1)">
<path d="M72.9955 20.7235C69.8949 20.7235 66.7719 19.8007 64.2958 17.8875C62.4666 16.4695 60.8159 14.5563 59.9906 11.9228C57.8714 15.3891 54.6815 17.5949 51.447 18.9679C46.4725 16.7171 40.5166 12.5981 38.152 5.30548C33.2668 13.3859 24.7232 17.4373 17.4288 19.463C10.0898 21.4663 4 21.4663 4 21.4663C4 21.4663 10.0898 21.4663 17.4288 23.5145C24.7232 25.5177 33.2668 29.5466 38.152 37.672C40.5166 30.3794 46.4725 26.2605 51.447 23.9646C54.6815 25.3826 57.8714 27.5884 59.9906 31.0547C60.6152 29.0965 61.6859 27.5209 62.9351 26.2605C65.6342 23.6045 69.3149 22.254 73.0848 22.254L72.9955 20.7235V20.7235Z" fill="black"/>
<path d="M58.5183 18.4502V21.4888V24.5274H682.646V21.4888V18.4502H58.5183Z" fill="black"/>
</g>
<g filter="url(#filter2_f_0_1)">
<path d="M1370.59 19.4856C1363.3 17.4373 1354.76 13.4084 1349.87 5.328C1347.51 12.6206 1341.55 16.7396 1336.58 18.9904C1333.34 17.6174 1330.15 15.4116 1328.03 11.9454C1327.21 14.5788 1325.56 16.492 1323.73 17.91C1321.25 19.8232 1318.13 20.746 1315.03 20.746L1314.94 22.2766C1318.71 22.2766 1322.39 23.6045 1325.09 26.283C1326.34 27.5434 1327.41 29.119 1328.03 31.0772C1330.15 27.611 1333.34 25.4052 1336.58 23.9872C1341.55 26.283 1347.51 30.402 1349.87 37.6946C1354.76 29.5692 1363.3 25.5402 1370.59 23.537C1377.93 21.4888 1384.02 21.4888 1384.02 21.4888C1384.02 21.4888 1377.93 21.4888 1370.59 19.4856V19.4856Z" fill="black"/>
<path d="M1329.5 18.4502H705.376V24.5274H1329.5V18.4502Z" fill="black"/>
</g>
<path d="M694 10.0771C687.732 10.0771 682.646 15.1865 682.646 21.5112C682.646 27.836 687.732 32.9453 694 32.9453C700.268 32.9453 705.354 27.836 705.354 21.5112C705.354 15.1865 700.268 10.0771 694 10.0771V10.0771ZM694 28.6013C690.096 28.6013 686.951 25.4276 686.951 21.5112C686.951 17.5948 690.119 14.4212 694 14.4212C697.881 14.4212 701.049 17.5948 701.049 21.5112C701.049 25.4276 697.881 28.6013 694 28.6013Z" fill="white"/>
<path d="M694 14.3987C690.096 14.3987 686.951 17.5724 686.951 21.4888C686.951 25.4052 690.119 28.5788 694 28.5788C697.881 28.5788 701.049 25.4052 701.049 21.4888C701.049 17.5724 697.881 14.3987 694 14.3987V14.3987Z" fill="white"/>
<path d="M694 4C684.408 4 676.623 11.8553 676.623 21.4887C676.623 31.1222 684.43 38.9775 694 38.9775C703.57 38.9775 711.377 31.1222 711.377 21.4887C711.377 11.8553 703.57 4 694 4ZM694 32.9228C687.732 32.9228 682.646 27.8135 682.646 21.4887C682.646 15.164 687.732 10.0547 694 10.0547C700.268 10.0547 705.354 15.164 705.354 21.4887C705.354 27.8135 700.268 32.9228 694 32.9228Z" fill="white"/>
<path d="M72.9955 20.7235C69.8949 20.7235 66.7719 19.8007 64.2958 17.8875C62.4666 16.4695 60.8159 14.5563 59.9906 11.9228C57.8714 15.3891 54.6815 17.5949 51.447 18.9679C46.4725 16.7171 40.5166 12.5981 38.152 5.30548C33.2668 13.3859 24.7232 17.4373 17.4288 19.463C10.0898 21.4663 4 21.4663 4 21.4663C4 21.4663 10.0898 21.4663 17.4288 23.5145C24.7232 25.5177 33.2668 29.5466 38.152 37.672C40.5166 30.3794 46.4725 26.2605 51.447 23.9646C54.6815 25.3826 57.8714 27.5884 59.9906 31.0547C60.6152 29.0965 61.6859 27.5209 62.9351 26.2605C65.6342 23.6045 69.3149 22.254 73.0848 22.254L72.9955 20.7235V20.7235Z" fill="white"/>
<path d="M58.5183 18.4502V21.4888V24.5274H682.646V21.4888V18.4502H58.5183Z" fill="white"/>
<path d="M1370.59 19.4856C1363.3 17.4373 1354.76 13.4084 1349.87 5.328C1347.51 12.6206 1341.55 16.7396 1336.58 18.9904C1333.34 17.6174 1330.15 15.4116 1328.03 11.9454C1327.21 14.5788 1325.56 16.492 1323.73 17.91C1321.25 19.8232 1318.13 20.746 1315.03 20.746L1314.94 22.2766C1318.71 22.2766 1322.39 23.6045 1325.09 26.283C1326.34 27.5434 1327.41 29.119 1328.03 31.0772C1330.15 27.611 1333.34 25.4052 1336.58 23.9872C1341.55 26.283 1347.51 30.402 1349.87 37.6946C1354.76 29.5692 1363.3 25.5402 1370.59 23.537C1377.93 21.4888 1384.02 21.4888 1384.02 21.4888C1384.02 21.4888 1377.93 21.4888 1370.59 19.4856V19.4856Z" fill="white"/>
<path d="M1329.5 18.4502H705.376V24.5274H1329.5V18.4502Z" fill="white"/>
<defs>
<filter id="filter0_f_0_1" x="672.623" y="0" width="42.7543" height="42.9775" filterUnits="userSpaceOnUse" color-interpolation-filters="sRGB">
<feFlood flood-opacity="0" result="BackgroundImageFix"/>
<feBlend mode="normal" in="SourceGraphic" in2="BackgroundImageFix" result="shape"/>
<feGaussianBlur stdDeviation="2" result="effect1_foregroundBlur_0_1"/>
</filter>
<filter id="filter1_f_0_1" x="0" y="1.30548" width="686.646" height="40.3666" filterUnits="userSpaceOnUse" color-interpolation-filters="sRGB">
<feFlood flood-opacity="0" result="BackgroundImageFix"/>
<feBlend mode="normal" in="SourceGraphic" in2="BackgroundImageFix" result="shape"/>
<feGaussianBlur stdDeviation="2" result="effect1_foregroundBlur_0_1"/>
</filter>
<filter id="filter2_f_0_1" x="701.376" y="1.328" width="686.646" height="40.3666" filterUnits="userSpaceOnUse" color-interpolation-filters="sRGB">
<feFlood flood-opacity="0" result="BackgroundImageFix"/>
<feBlend mode="normal" in="SourceGraphic" in2="BackgroundImageFix" result="shape"/>
<feGaussianBlur stdDeviation="2" result="effect1_foregroundBlur_0_1"/>
</filter>
</defs>
</svg>
