<svg width="295" height="161" viewBox="0 0 295 161" fill="none" xmlns="http://www.w3.org/2000/svg">
<path d="M76.832 40.976C76.6453 34.5547 79.2213 29.7013 84.56 26.416C89.936 23.1307 97.4213 21.6187 107.016 21.88C106.755 23.9707 106.549 26.3787 106.4 29.104C106.251 31.792 106.157 34.8533 106.12 38.288C106.083 41.6853 106.045 44.504 106.008 46.744C106.008 48.9467 106.008 52.008 106.008 55.928C106.045 59.848 106.064 62.256 106.064 63.152C106.064 69.0507 103.04 72 96.992 72C94.3787 72 92.1947 71.3653 90.44 70.096C88.6853 68.7893 87.8453 66.9413 87.92 64.552C87.9947 63.2453 88.6667 62.256 89.936 61.584C91.2053 60.8747 92.624 60.8747 94.192 61.584C93.4453 62.368 92.848 63.208 92.4 64.104C91.9893 64.9627 91.7653 65.7467 91.728 66.456C91.6907 67.128 91.7467 67.744 91.896 68.304C92.0453 68.864 92.2693 69.2933 92.568 69.592C92.904 69.8907 93.2587 70.0213 93.632 69.984C94.192 69.9467 94.6587 69.4987 95.032 68.64C95.4427 67.744 95.648 66.4373 95.648 64.72C95.648 63.712 95.6667 59.3627 95.704 51.672C95.7413 43.944 95.7787 38.68 95.816 35.88C95.8533 31.288 95.592 27.6107 95.032 24.848C92.68 26.6027 90.8693 28.824 89.6 31.512C88.3307 34.2 87.8453 37.2053 88.144 40.528C88.3307 42.8053 88.9467 44.8587 89.992 46.688C91.0747 48.5173 92.5307 49.8987 94.36 50.832C91.7093 51.6533 89.3013 51.9707 87.136 51.784C85.008 51.56 83.1787 50.9627 81.648 49.992C80.1547 48.984 78.9973 47.7147 78.176 46.184C77.3547 44.616 76.9067 42.88 76.832 40.976ZM109.069 43.16C110.003 39.464 112.037 36.776 115.173 35.096C118.309 33.416 121.632 33.2293 125.141 34.536C128.688 35.8427 131.376 38.2507 133.205 41.76C135.035 45.2693 135.483 48.872 134.549 52.568C133.616 56.2267 131.581 58.896 128.445 60.576C125.309 62.256 121.968 62.4427 118.421 61.136C114.912 59.8293 112.243 57.4213 110.413 53.912C108.584 50.4027 108.136 46.8187 109.069 43.16ZM124.581 46.352C123.013 43.2533 121.389 40.808 119.709 39.016C118.067 37.224 116.853 36.5333 116.069 36.944C115.285 37.3547 115.173 38.7547 115.733 41.144C116.293 43.496 117.376 46.2213 118.981 49.32C120.587 52.3813 122.211 54.8267 123.853 56.656C125.533 58.448 126.765 59.1387 127.549 58.728C128.296 58.3173 128.389 56.9173 127.829 54.528C127.307 52.1387 126.224 49.4133 124.581 46.352ZM147.613 41.816C147.464 42.7493 147.352 44.112 147.277 45.904C147.202 47.6587 147.184 49.5253 147.221 51.504C147.258 53.4453 147.408 55.3867 147.669 57.328C147.93 59.232 148.266 60.7067 148.677 61.752H135.965C136.824 59.8853 137.346 57.104 137.533 53.408C137.757 49.712 137.701 46.2773 137.365 43.104C137.029 39.8933 136.562 37.7467 135.965 36.664C139.885 36.2907 143.637 35.4693 147.221 34.2V37.112C147.482 36.7013 147.762 36.3467 148.061 36.048C149.592 34.5547 151.44 33.8267 153.605 33.864C155.696 33.9387 157.432 34.8533 158.813 36.608C160.232 38.3627 160.96 40.36 160.997 42.6C160.997 44.2427 160.624 45.6613 159.877 46.856C159.168 48.0133 158.253 48.8533 157.133 49.376C156.05 49.8613 154.856 50.0853 153.549 50.048C152.28 49.9733 151.104 49.6187 150.021 48.984C150.992 48.2747 151.645 47.0987 151.981 45.456C152.354 43.776 152.354 42.208 151.981 40.752C151.645 39.296 151.048 38.4933 150.189 38.344C148.957 38.0827 148.098 39.24 147.613 41.816ZM173.471 48.872C173.471 55.1067 173.956 59.4 174.927 61.752H162.215C162.85 60.3333 163.298 58.336 163.559 55.76C163.858 53.184 163.97 50.6453 163.895 48.144C163.82 45.6053 163.634 43.2533 163.335 41.088C163.036 38.9227 162.663 37.448 162.215 36.664C166.098 36.2907 169.85 35.4693 173.471 34.2V44.224C174.852 39.1467 176.663 35.936 178.903 34.592C179.612 34.1813 180.396 33.92 181.255 33.808C182.114 33.6587 182.991 33.7147 183.887 33.976C184.82 34.2 185.66 34.6293 186.407 35.264C187.154 35.8613 187.77 36.7947 188.255 38.064C188.74 39.296 188.983 40.7707 188.983 42.488C188.983 42.6 188.964 43.2533 188.927 44.448C188.927 45.6427 188.927 46.6133 188.927 47.36C188.964 48.0693 188.983 49.1147 188.983 50.496C189.02 51.84 189.058 52.9973 189.095 53.968C189.17 54.9387 189.263 55.9653 189.375 57.048C189.487 58.1307 189.618 59.0827 189.767 59.904C189.954 60.688 190.178 61.304 190.439 61.752H178.175C178.548 61.2667 178.866 59.8853 179.127 57.608C179.388 55.2933 179.556 52.8667 179.631 50.328C179.706 47.752 179.575 45.4373 179.239 43.384C178.94 41.2933 178.418 40.2107 177.671 40.136C176.85 40.0987 176.122 40.7893 175.487 42.208C174.852 43.6267 174.236 45.5493 173.639 47.976C173.564 48.2747 173.508 48.5733 173.471 48.872ZM206.538 48.312C206.575 46.744 206.594 45.624 206.594 44.952C206.519 44.9893 206.314 45.176 205.978 45.512C205.679 45.848 205.474 46.072 205.362 46.184C205.287 46.2587 205.101 46.464 204.802 46.8C204.541 47.0987 204.354 47.3413 204.242 47.528C204.13 47.6773 203.943 47.92 203.682 48.256C203.421 48.5547 203.234 48.816 203.122 49.04C203.01 49.264 202.861 49.5627 202.674 49.936C202.487 50.272 202.338 50.5893 202.226 50.888C202.114 51.1867 202.002 51.5227 201.89 51.896C201.815 52.2693 201.741 52.6427 201.666 53.016C201.517 53.912 201.535 54.6213 201.722 55.144C201.909 55.6667 202.207 55.928 202.618 55.928C203.439 55.8533 204.149 55.1627 204.746 53.856C205.381 52.512 205.978 50.664 206.538 48.312ZM206.538 52.96C206.165 54.2667 205.773 55.4053 205.362 56.376C204.989 57.3093 204.466 58.28 203.794 59.288C203.159 60.296 202.338 61.08 201.33 61.64C200.359 62.1627 199.221 62.424 197.914 62.424C195.823 62.424 194.162 61.696 192.93 60.24C191.735 58.7467 191.194 56.992 191.306 54.976C191.455 52.9227 192.258 51.1493 193.714 49.656C194.759 48.5733 196.066 47.64 197.634 46.856C199.202 46.0347 200.583 45.4373 201.778 45.064C203.01 44.6907 204.149 44.1307 205.194 43.384C206.277 42.6 206.967 41.6107 207.266 40.416C207.565 39.184 207.509 38.0453 207.098 37C206.725 35.9173 205.903 35.32 204.634 35.208C203.999 35.1707 203.365 35.3387 202.73 35.712C202.133 36.0853 201.666 36.5707 201.33 37.168C201.031 37.728 200.975 38.4373 201.162 39.296C201.349 40.1173 201.853 40.9387 202.674 41.76C201.89 42.7307 200.826 43.384 199.482 43.72C198.138 44.0187 196.85 43.8693 195.618 43.272C194.423 42.6747 193.658 41.6667 193.322 40.248C193.061 38.232 194.274 36.496 196.962 35.04C199.911 33.472 203.178 32.9307 206.762 33.416C211.055 33.9387 213.949 35.8613 215.442 39.184C216.077 40.6027 216.394 42.2267 216.394 44.056L216.45 54.36C216.45 56.3387 216.637 57.832 217.01 58.84C217.383 59.848 217.981 60.2773 218.802 60.128C219.885 59.7547 220.295 58.504 220.034 56.376C219.81 54.2107 219.082 52.4 217.85 50.944C219.978 49.8613 221.621 50.1227 222.778 51.728C223.786 53.2213 223.935 55.0133 223.226 57.104C222.405 59.6053 220.65 61.2107 217.962 61.92C217.103 62.1813 216.17 62.312 215.162 62.312C209.487 62.312 206.613 59.1947 206.538 52.96ZM250.178 61.752H237.522C235.021 61.7893 232.762 61.1173 230.746 59.736C228.768 58.3547 227.125 56.5253 225.818 54.248C224.773 52.4187 224.045 50.2907 223.634 47.864C223.224 45.4373 223.317 43.0107 223.914 40.584C224.549 38.1573 225.744 36.328 227.498 35.096C229.253 33.864 231.138 33.5093 233.154 34.032C235.618 34.6667 237.578 36.9253 239.034 40.808C238.848 35.0587 238.344 31.344 237.522 29.664C239.538 29.4027 241.797 28.8987 244.298 28.152C246.837 27.368 248.797 26.584 250.178 25.8C249.357 28.376 248.928 34.368 248.89 43.776C248.853 53.1467 249.282 59.1387 250.178 61.752ZM235.674 39.968C233.994 39.8933 233.061 41.2933 232.874 44.168C232.688 47.4907 233.453 51.056 235.17 54.864C236.029 56.768 237.018 58.336 238.138 59.568C238.773 56.3573 239.109 51.8587 239.146 46.072C238.997 44.9147 238.754 43.888 238.418 42.992C238.082 42.0587 237.672 41.3307 237.186 40.808C236.738 40.2853 236.234 40.0053 235.674 39.968ZM266.476 48.312C266.513 46.744 266.532 45.624 266.532 44.952C266.457 44.9893 266.252 45.176 265.916 45.512C265.617 45.848 265.412 46.072 265.3 46.184C265.225 46.2587 265.038 46.464 264.74 46.8C264.478 47.0987 264.292 47.3413 264.18 47.528C264.068 47.6773 263.881 47.92 263.62 48.256C263.358 48.5547 263.172 48.816 263.06 49.04C262.948 49.264 262.798 49.5627 262.612 49.936C262.425 50.272 262.276 50.5893 262.164 50.888C262.052 51.1867 261.94 51.5227 261.828 51.896C261.753 52.2693 261.678 52.6427 261.604 53.016C261.454 53.912 261.473 54.6213 261.66 55.144C261.846 55.6667 262.145 55.928 262.556 55.928C263.377 55.8533 264.086 55.1627 264.684 53.856C265.318 52.512 265.916 50.664 266.476 48.312ZM266.476 52.96C266.102 54.2667 265.71 55.4053 265.3 56.376C264.926 57.3093 264.404 58.28 263.732 59.288C263.097 60.296 262.276 61.08 261.268 61.64C260.297 62.1627 259.158 62.424 257.852 62.424C255.761 62.424 254.1 61.696 252.868 60.24C251.673 58.7467 251.132 56.992 251.244 54.976C251.393 52.9227 252.196 51.1493 253.652 49.656C254.697 48.5733 256.004 47.64 257.572 46.856C259.14 46.0347 260.521 45.4373 261.716 45.064C262.948 44.6907 264.086 44.1307 265.132 43.384C266.214 42.6 266.905 41.6107 267.204 40.416C267.502 39.184 267.446 38.0453 267.036 37C266.662 35.9173 265.841 35.32 264.572 35.208C263.937 35.1707 263.302 35.3387 262.668 35.712C262.07 36.0853 261.604 36.5707 261.268 37.168C260.969 37.728 260.913 38.4373 261.1 39.296C261.286 40.1173 261.79 40.9387 262.612 41.76C261.828 42.7307 260.764 43.384 259.42 43.72C258.076 44.0187 256.788 43.8693 255.556 43.272C254.361 42.6747 253.596 41.6667 253.26 40.248C252.998 38.232 254.212 36.496 256.9 35.04C259.849 33.472 263.116 32.9307 266.7 33.416C270.993 33.9387 273.886 35.8613 275.38 39.184C276.014 40.6027 276.332 42.2267 276.332 44.056L276.388 54.36C276.388 56.3387 276.574 57.832 276.948 58.84C277.321 59.848 277.918 60.2773 278.74 60.128C279.822 59.7547 280.233 58.504 279.972 56.376C279.748 54.2107 279.02 52.4 277.788 50.944C279.916 49.8613 281.558 50.1227 282.716 51.728C283.724 53.2213 283.873 55.0133 283.164 57.104C282.342 59.6053 280.588 61.2107 277.9 61.92C277.041 62.1813 276.108 62.312 275.1 62.312C269.425 62.312 266.55 59.1947 266.476 52.96Z" fill="white"/>
<path d="M40.52 74.858C41.6613 82.134 45.9057 86.3783 53.253 87.591C49.829 88.233 47.0113 89.6597 44.8 91.871C42.5887 94.0823 41.162 96.8643 40.52 100.217C39.8067 96.793 38.3443 93.9753 36.133 91.764C33.9217 89.4813 31.104 88.0903 27.68 87.591C34.956 86.307 39.236 82.0627 40.52 74.858ZM21.153 109.312L0.502 109.419C2.856 108.42 4.889 107.315 6.601 106.102C8.313 104.818 9.98933 102.892 11.63 100.324C13.342 97.756 14.7687 94.5817 15.91 90.801L21.902 71.22C23.1147 71.2913 24.3273 71.2913 25.54 71.22L19.548 90.908C17.9787 94.974 17.2297 98.291 17.301 100.859C17.3723 103.356 18.6563 106.173 21.153 109.312ZM42.874 59.664C41.0907 62.3033 38.7367 64.4077 35.812 65.977C32.9587 67.475 29.9983 68.2953 26.931 68.438C23.8637 68.5807 20.8677 68.2953 17.943 67.582C15.0897 66.7973 12.593 65.5133 10.453 63.73C8.313 61.8753 6.922 59.6997 6.28 57.203C5.28133 53.4937 5.28133 49.82 6.28 46.182C7.27867 42.4727 9.062 39.2627 11.63 36.552C14.198 33.77 17.3367 31.3803 21.046 29.383C24.8267 27.3143 28.964 26.0303 33.458 25.531C37.952 25.0317 42.5887 25.2457 47.368 26.173C50.0787 26.815 52.504 27.7423 54.644 28.955C56.784 30.1677 58.496 31.3803 59.78 32.593C61.1353 33.8057 62.4193 35.4463 63.632 37.515C64.8447 39.5837 65.7363 41.3313 66.307 42.758C66.949 44.1847 67.7693 46.2533 68.768 48.964C69.9093 51.96 71.443 56.2043 73.369 61.697C75.3663 67.1897 77.1853 72.183 78.826 76.677C80.538 81.0997 82.25 85.3083 83.962 89.303C89.2407 101.715 93.057 108.42 95.411 109.419H62.348C63.3467 108.563 63.8817 107.208 63.953 105.353C64.0957 103.498 63.953 101.822 63.525 100.324C63.1683 98.826 62.5263 96.6503 61.599 93.797C61.5277 93.5117 61.4563 93.2977 61.385 93.155C61.385 93.0123 61.3493 92.834 61.278 92.62C61.2067 92.406 61.1353 92.192 61.064 91.978C56.9267 78.7813 51.0417 62.553 43.409 43.293C43.409 43.2217 43.3733 43.1147 43.302 42.972C42.5887 41.26 41.9467 39.869 41.376 38.799C40.8767 37.6577 40.0563 36.2667 38.915 34.626C37.7737 32.914 36.3827 31.737 34.742 31.095C33.1727 30.453 31.425 30.4173 29.499 30.988C25.5757 32.058 23.186 35.0897 22.33 40.083C21.5453 45.005 22.972 49.6417 26.61 53.993C30.3193 58.3443 35.7407 60.2347 42.874 59.664Z" fill="white"/>
<path d="M114.624 95.312C114.661 93.744 114.68 92.624 114.68 91.952C114.605 91.9893 114.4 92.176 114.064 92.512C113.765 92.848 113.56 93.072 113.448 93.184C113.373 93.2587 113.187 93.464 112.888 93.8C112.627 94.0987 112.44 94.3413 112.328 94.528C112.216 94.6773 112.029 94.92 111.768 95.256C111.507 95.5547 111.32 95.816 111.208 96.04C111.096 96.264 110.947 96.5627 110.76 96.936C110.573 97.272 110.424 97.5893 110.312 97.888C110.2 98.1867 110.088 98.5227 109.976 98.896C109.901 99.2693 109.827 99.6427 109.752 100.016C109.603 100.912 109.621 101.621 109.808 102.144C109.995 102.667 110.293 102.928 110.704 102.928C111.525 102.853 112.235 102.163 112.832 100.856C113.467 99.512 114.064 97.664 114.624 95.312ZM114.624 99.96C114.251 101.267 113.859 102.405 113.448 103.376C113.075 104.309 112.552 105.28 111.88 106.288C111.245 107.296 110.424 108.08 109.416 108.64C108.445 109.163 107.307 109.424 106 109.424C103.909 109.424 102.248 108.696 101.016 107.24C99.8213 105.747 99.28 103.992 99.392 101.976C99.5413 99.9227 100.344 98.1493 101.8 96.656C102.845 95.5733 104.152 94.64 105.72 93.856C107.288 93.0347 108.669 92.4373 109.864 92.064C111.096 91.6907 112.235 91.1307 113.28 90.384C114.363 89.6 115.053 88.6107 115.352 87.416C115.651 86.184 115.595 85.0453 115.184 84C114.811 82.9173 113.989 82.32 112.72 82.208C112.085 82.1707 111.451 82.3387 110.816 82.712C110.219 83.0853 109.752 83.5707 109.416 84.168C109.117 84.728 109.061 85.4373 109.248 86.296C109.435 87.1173 109.939 87.9387 110.76 88.76C109.976 89.7307 108.912 90.384 107.568 90.72C106.224 91.0187 104.936 90.8693 103.704 90.272C102.509 89.6747 101.744 88.6667 101.408 87.248C101.147 85.232 102.36 83.496 105.048 82.04C107.997 80.472 111.264 79.9307 114.848 80.416C119.141 80.9387 122.035 82.8613 123.528 86.184C124.163 87.6027 124.48 89.2267 124.48 91.056L124.536 101.36C124.536 103.339 124.723 104.832 125.096 105.84C125.469 106.848 126.067 107.277 126.888 107.128C127.971 106.755 128.381 105.504 128.12 103.376C127.896 101.211 127.168 99.4 125.936 97.944C128.064 96.8613 129.707 97.1227 130.864 98.728C131.872 100.221 132.021 102.013 131.312 104.104C130.491 106.605 128.736 108.211 126.048 108.92C125.189 109.181 124.256 109.312 123.248 109.312C117.573 109.312 114.699 106.195 114.624 99.96ZM131.218 81.2C133.234 80.8267 135.362 80.2107 137.602 79.352C139.879 78.456 141.578 77.56 142.698 76.664V81.2H147.626V83.104C147.066 83.104 146.226 83.104 145.106 83.104C143.986 83.104 143.164 83.104 142.642 83.104C142.679 93.296 142.716 99.3813 142.754 101.36C142.754 103.339 142.922 104.832 143.258 105.84C143.631 106.848 144.228 107.277 145.05 107.128C146.17 106.755 146.599 105.504 146.338 103.376C146.076 101.211 145.33 99.4 144.098 97.944C146.263 96.8613 147.906 97.1227 149.026 98.728C150.071 100.221 150.239 102.013 149.53 104.104C148.708 106.605 146.935 108.211 144.21 108.92C143.351 109.144 142.436 109.275 141.466 109.312C135.679 109.312 132.785 106.101 132.785 99.68C132.785 98.672 132.785 97.328 132.785 95.648C132.823 93.9307 132.823 92.7173 132.785 92.008C132.785 91.2987 132.767 90.3467 132.73 89.152C132.73 87.9573 132.692 87.08 132.618 86.52C132.58 85.96 132.506 85.3067 132.394 84.56C132.282 83.8133 132.132 83.1973 131.946 82.712C131.759 82.1893 131.516 81.6853 131.218 81.2ZM176.453 99.344C176.154 101.659 175.202 103.675 173.597 105.392C171.991 107.072 170.013 108.248 167.661 108.92C163.927 109.928 160.437 109.443 157.189 107.464C155.322 106.344 153.829 104.888 152.709 103.096C151.626 101.267 150.954 99.3813 150.693 97.44C150.469 95.4987 150.599 93.5387 151.085 91.56C151.57 89.544 152.354 87.752 153.437 86.184C154.557 84.5787 156.031 83.2907 157.861 82.32C159.69 81.312 161.687 80.808 163.853 80.808C167.213 80.808 170.106 82.0027 172.533 84.392C174.959 86.7813 176.322 89.7493 176.621 93.296H158.141C159.074 95.1253 160.381 96.6747 162.061 97.944C163.778 99.176 165.869 99.9973 168.333 100.408C170.797 100.819 173.503 100.464 176.453 99.344ZM160.269 79.072L163.181 72.8H166.933L162.117 79.072H160.269ZM157.469 84.392C156.759 84.5413 156.367 85.2693 156.293 86.576C156.218 87.8453 156.554 89.4507 157.301 91.392H164.861C164.151 89.3387 163.013 87.6027 161.445 86.184C159.877 84.7653 158.551 84.168 157.469 84.392ZM206.28 95.312C206.318 93.744 206.336 92.624 206.336 91.952C206.262 91.9893 206.056 92.176 205.72 92.512C205.422 92.848 205.216 93.072 205.104 93.184C205.03 93.2587 204.843 93.464 204.544 93.8C204.283 94.0987 204.096 94.3413 203.984 94.528C203.872 94.6773 203.686 94.92 203.424 95.256C203.163 95.5547 202.976 95.816 202.864 96.04C202.752 96.264 202.603 96.5627 202.416 96.936C202.23 97.272 202.08 97.5893 201.968 97.888C201.856 98.1867 201.744 98.5227 201.632 98.896C201.558 99.2693 201.483 99.6427 201.408 100.016C201.259 100.912 201.278 101.621 201.464 102.144C201.651 102.667 201.95 102.928 202.36 102.928C203.182 102.853 203.891 102.163 204.488 100.856C205.123 99.512 205.72 97.664 206.28 95.312ZM206.28 99.96C205.907 101.267 205.515 102.405 205.104 103.376C204.731 104.309 204.208 105.28 203.536 106.288C202.902 107.296 202.08 108.08 201.072 108.64C200.102 109.163 198.963 109.424 197.656 109.424C195.566 109.424 193.904 108.696 192.672 107.24C191.478 105.747 190.936 103.992 191.048 101.976C191.198 99.9227 192 98.1493 193.456 96.656C194.502 95.5733 195.808 94.64 197.376 93.856C198.944 93.0347 200.326 92.4373 201.52 92.064C202.752 91.6907 203.891 91.1307 204.936 90.384C206.019 89.6 206.71 88.6107 207.008 87.416C207.307 86.184 207.251 85.0453 206.84 84C206.467 82.9173 205.646 82.32 204.376 82.208C203.742 82.1707 203.107 82.3387 202.472 82.712C201.875 83.0853 201.408 83.5707 201.072 84.168C200.774 84.728 200.718 85.4373 200.904 86.296C201.091 87.1173 201.595 87.9387 202.416 88.76C201.632 89.7307 200.568 90.384 199.224 90.72C197.88 91.0187 196.592 90.8693 195.36 90.272C194.166 89.6747 193.4 88.6667 193.064 87.248C192.803 85.232 194.016 83.496 196.704 82.04C199.654 80.472 202.92 79.9307 206.504 80.416C210.798 80.9387 213.691 82.8613 215.184 86.184C215.819 87.6027 216.136 89.2267 216.136 91.056L216.192 101.36C216.192 103.339 216.379 104.832 216.752 105.84C217.126 106.848 217.723 107.277 218.544 107.128C219.627 106.755 220.038 105.504 219.776 103.376C219.552 101.211 218.824 99.4 217.592 97.944C219.72 96.8613 221.363 97.1227 222.52 98.728C223.528 100.221 223.678 102.013 222.968 104.104C222.147 106.605 220.392 108.211 217.704 108.92C216.846 109.181 215.912 109.312 214.904 109.312C209.23 109.312 206.355 106.195 206.28 99.96ZM250.575 119H237.807C238.442 117.059 238.909 113.736 239.207 109.032C236.37 109.405 233.831 108.901 231.591 107.52C229.351 106.101 227.522 104.141 226.103 101.64C225.058 99.8107 224.311 97.664 223.863 95.2C223.453 92.6987 223.527 90.216 224.087 87.752C224.685 85.2507 225.861 83.384 227.615 82.152C229.37 80.92 231.255 80.5653 233.271 81.088C235.474 81.648 237.341 83.664 238.871 87.136C238.61 84.5227 238.255 82.544 237.807 81.2H250.575C249.567 84.7093 249.063 91.0747 249.063 100.296C249.101 109.517 249.605 115.752 250.575 119ZM235.959 87.36C234.317 87.2853 233.383 88.5733 233.159 91.224C232.935 93.8747 233.402 96.88 234.559 100.24C235.754 103.563 237.322 106.083 239.263 107.8C239.562 102.872 239.581 97.944 239.319 93.016C239.058 91.336 238.629 89.992 238.031 88.984C237.434 87.9387 236.743 87.3973 235.959 87.36ZM280.086 81.2C279.265 83.2907 278.798 87.6773 278.686 94.36C278.611 101.043 279.078 105.84 280.086 108.752H267.878C268.923 106.325 269.465 102.48 269.502 97.216L269.446 97.384C268.737 100.221 267.934 102.573 267.038 104.44C266.142 106.269 264.985 107.595 263.566 108.416C262.707 108.939 261.718 109.256 260.598 109.368C259.478 109.443 258.339 109.2 257.182 108.64C256.062 108.043 255.222 107.109 254.662 105.84C254.027 104.459 253.654 102.461 253.542 99.848C253.43 97.2347 253.299 94.4533 253.15 91.504C253.001 88.5547 252.571 86.1093 251.862 84.168C256.155 83.6453 259.833 82.656 262.894 81.2V93.408C262.894 99.792 263.547 102.965 264.854 102.928C265.713 102.853 266.441 102.144 267.038 100.8C267.673 99.4187 268.27 97.5333 268.83 95.144C269.017 94.3973 269.185 93.632 269.334 92.848C269.073 88.4427 268.587 85.5493 267.878 84.168C269.819 83.9813 272.003 83.5893 274.43 82.992C276.857 82.3947 278.742 81.7973 280.086 81.2ZM293.716 108.752H281.508C282.329 106.885 282.833 104.701 283.02 102.2C283.207 99.6613 283.132 97.384 282.796 95.368C282.497 93.3147 282.068 91.728 281.508 90.608C283.785 90.608 286.025 90.3653 288.228 89.88C290.468 89.3947 292.297 88.6667 293.716 87.696C292.895 89.7867 292.428 93.0907 292.316 97.608C292.241 102.125 292.708 105.84 293.716 108.752ZM283.3 86.296C282.143 85.4 281.564 84.3173 281.564 83.048C281.564 81.7787 282.143 80.696 283.3 79.8C284.495 78.904 285.932 78.456 287.612 78.456C289.292 78.456 290.729 78.904 291.924 79.8C293.119 80.696 293.716 81.7787 293.716 83.048C293.716 84.3173 293.119 85.4 291.924 86.296C290.729 87.1547 289.292 87.584 287.612 87.584C285.932 87.584 284.495 87.1547 283.3 86.296Z" fill="white"/>
</svg>
