<svg width="302" height="157" viewBox="0 0 302 157" fill="none" xmlns="http://www.w3.org/2000/svg">
<g filter="url(#filter0_d_114_8)">
<path d="M80.832 40.8518C80.6453 34.4305 83.2213 29.5771 88.56 26.2918C93.936 23.0065 101.421 21.4945 111.016 21.7558C110.755 23.8465 110.549 26.2545 110.4 28.9798C110.251 31.6678 110.157 34.7291 110.12 38.1638C110.083 41.5611 110.045 44.3798 110.008 46.6198C110.008 48.8225 110.008 51.8838 110.008 55.8038C110.045 59.7238 110.064 62.1318 110.064 63.0278C110.064 68.9265 107.04 71.8758 100.992 71.8758C98.3787 71.8758 96.1947 71.2411 94.44 69.9718C92.6853 68.6651 91.8453 66.8171 91.92 64.4278C91.9947 63.1211 92.6667 62.1318 93.936 61.4598C95.2053 60.7505 96.624 60.7505 98.192 61.4598C97.4453 62.2438 96.848 63.0838 96.4 63.9798C95.9893 64.8385 95.7653 65.6225 95.728 66.3318C95.6907 67.0038 95.7467 67.6198 95.896 68.1798C96.0453 68.7398 96.2693 69.1691 96.568 69.4678C96.904 69.7665 97.2587 69.8971 97.632 69.8598C98.192 69.8225 98.6587 69.3745 99.032 68.5158C99.4427 67.6198 99.648 66.3131 99.648 64.5958C99.648 63.5878 99.6667 59.2385 99.704 51.5478C99.7413 43.8198 99.7787 38.5558 99.816 35.7558C99.8533 31.1638 99.592 27.4865 99.032 24.7238C96.68 26.4785 94.8693 28.6998 93.6 31.3878C92.3307 34.0758 91.8453 37.0811 92.144 40.4038C92.3307 42.6811 92.9467 44.7345 93.992 46.5638C95.0747 48.3931 96.5307 49.7745 98.36 50.7078C95.7093 51.5291 93.3013 51.8465 91.136 51.6598C89.008 51.4358 87.1787 50.8385 85.648 49.8678C84.1547 48.8598 82.9973 47.5905 82.176 46.0598C81.3547 44.4918 80.9067 42.7558 80.832 40.8518ZM113.069 43.0358C114.003 39.3398 116.037 36.6518 119.173 34.9718C122.309 33.2918 125.632 33.1051 129.141 34.4118C132.688 35.7185 135.376 38.1265 137.205 41.6358C139.035 45.1451 139.483 48.7478 138.549 52.4438C137.616 56.1025 135.581 58.7718 132.445 60.4518C129.309 62.1318 125.968 62.3185 122.421 61.0118C118.912 59.7051 116.243 57.2971 114.413 53.7878C112.584 50.2785 112.136 46.6945 113.069 43.0358ZM128.581 46.2278C127.013 43.1291 125.389 40.6838 123.709 38.8918C122.067 37.0998 120.853 36.4091 120.069 36.8198C119.285 37.2305 119.173 38.6305 119.733 41.0198C120.293 43.3718 121.376 46.0971 122.981 49.1958C124.587 52.2571 126.211 54.7025 127.853 56.5318C129.533 58.3238 130.765 59.0145 131.549 58.6038C132.296 58.1931 132.389 56.7931 131.829 54.4038C131.307 52.0145 130.224 49.2891 128.581 46.2278ZM151.613 41.6918C151.464 42.6251 151.352 43.9878 151.277 45.7798C151.202 47.5345 151.184 49.4011 151.221 51.3798C151.258 53.3211 151.408 55.2625 151.669 57.2038C151.93 59.1078 152.266 60.5825 152.677 61.6278H139.965C140.824 59.7611 141.346 56.9798 141.533 53.2838C141.757 49.5878 141.701 46.1531 141.365 42.9798C141.029 39.7691 140.562 37.6225 139.965 36.5398C143.885 36.1665 147.637 35.3451 151.221 34.0758V36.9878C151.482 36.5771 151.762 36.2225 152.061 35.9238C153.592 34.4305 155.44 33.7025 157.605 33.7398C159.696 33.8145 161.432 34.7291 162.813 36.4838C164.232 38.2385 164.96 40.2358 164.997 42.4758C164.997 44.1185 164.624 45.5371 163.877 46.7318C163.168 47.8891 162.253 48.7291 161.133 49.2518C160.05 49.7371 158.856 49.9611 157.549 49.9238C156.28 49.8491 155.104 49.4945 154.021 48.8598C154.992 48.1505 155.645 46.9745 155.981 45.3318C156.354 43.6518 156.354 42.0838 155.981 40.6278C155.645 39.1718 155.048 38.3691 154.189 38.2198C152.957 37.9585 152.098 39.1158 151.613 41.6918ZM177.471 48.7478C177.471 54.9825 177.956 59.2758 178.927 61.6278H166.215C166.85 60.2091 167.298 58.2118 167.559 55.6358C167.858 53.0598 167.97 50.5211 167.895 48.0198C167.82 45.4811 167.634 43.1291 167.335 40.9638C167.036 38.7985 166.663 37.3238 166.215 36.5398C170.098 36.1665 173.85 35.3451 177.471 34.0758V44.0998C178.852 39.0225 180.663 35.8118 182.903 34.4678C183.612 34.0571 184.396 33.7958 185.255 33.6838C186.114 33.5345 186.991 33.5905 187.887 33.8518C188.82 34.0758 189.66 34.5051 190.407 35.1398C191.154 35.7371 191.77 36.6705 192.255 37.9398C192.74 39.1718 192.983 40.6465 192.983 42.3638C192.983 42.4758 192.964 43.1291 192.927 44.3238C192.927 45.5185 192.927 46.4891 192.927 47.2358C192.964 47.9451 192.983 48.9905 192.983 50.3718C193.02 51.7158 193.058 52.8731 193.095 53.8438C193.17 54.8145 193.263 55.8411 193.375 56.9238C193.487 58.0065 193.618 58.9585 193.767 59.7798C193.954 60.5638 194.178 61.1798 194.439 61.6278H182.175C182.548 61.1425 182.866 59.7611 183.127 57.4838C183.388 55.1691 183.556 52.7425 183.631 50.2038C183.706 47.6278 183.575 45.3131 183.239 43.2598C182.94 41.1691 182.418 40.0865 181.671 40.0118C180.85 39.9745 180.122 40.6651 179.487 42.0838C178.852 43.5025 178.236 45.4251 177.639 47.8518C177.564 48.1505 177.508 48.4491 177.471 48.7478ZM210.538 48.1878C210.575 46.6198 210.594 45.4998 210.594 44.8278C210.519 44.8651 210.314 45.0518 209.978 45.3878C209.679 45.7238 209.474 45.9478 209.362 46.0598C209.287 46.1345 209.101 46.3398 208.802 46.6758C208.541 46.9745 208.354 47.2171 208.242 47.4038C208.13 47.5531 207.943 47.7958 207.682 48.1318C207.421 48.4305 207.234 48.6918 207.122 48.9158C207.01 49.1398 206.861 49.4385 206.674 49.8118C206.487 50.1478 206.338 50.4651 206.226 50.7638C206.114 51.0625 206.002 51.3985 205.89 51.7718C205.815 52.1451 205.741 52.5185 205.666 52.8918C205.517 53.7878 205.535 54.4971 205.722 55.0198C205.909 55.5425 206.207 55.8038 206.618 55.8038C207.439 55.7291 208.149 55.0385 208.746 53.7318C209.381 52.3878 209.978 50.5398 210.538 48.1878ZM210.538 52.8358C210.165 54.1425 209.773 55.2811 209.362 56.2518C208.989 57.1851 208.466 58.1558 207.794 59.1638C207.159 60.1718 206.338 60.9558 205.33 61.5158C204.359 62.0385 203.221 62.2998 201.914 62.2998C199.823 62.2998 198.162 61.5718 196.93 60.1158C195.735 58.6225 195.194 56.8678 195.306 54.8518C195.455 52.7985 196.258 51.0251 197.714 49.5318C198.759 48.4491 200.066 47.5158 201.634 46.7318C203.202 45.9105 204.583 45.3131 205.778 44.9398C207.01 44.5665 208.149 44.0065 209.194 43.2598C210.277 42.4758 210.967 41.4865 211.266 40.2918C211.565 39.0598 211.509 37.9211 211.098 36.8758C210.725 35.7931 209.903 35.1958 208.634 35.0838C207.999 35.0465 207.365 35.2145 206.73 35.5878C206.133 35.9611 205.666 36.4465 205.33 37.0438C205.031 37.6038 204.975 38.3131 205.162 39.1718C205.349 39.9931 205.853 40.8145 206.674 41.6358C205.89 42.6065 204.826 43.2598 203.482 43.5958C202.138 43.8945 200.85 43.7451 199.618 43.1478C198.423 42.5505 197.658 41.5425 197.322 40.1238C197.061 38.1078 198.274 36.3718 200.962 34.9158C203.911 33.3478 207.178 32.8065 210.762 33.2918C215.055 33.8145 217.949 35.7371 219.442 39.0598C220.077 40.4785 220.394 42.1025 220.394 43.9318L220.45 54.2358C220.45 56.2145 220.637 57.7078 221.01 58.7158C221.383 59.7238 221.981 60.1531 222.802 60.0038C223.885 59.6305 224.295 58.3798 224.034 56.2518C223.81 54.0865 223.082 52.2758 221.85 50.8198C223.978 49.7371 225.621 49.9985 226.778 51.6038C227.786 53.0971 227.935 54.8891 227.226 56.9798C226.405 59.4811 224.65 61.0865 221.962 61.7958C221.103 62.0571 220.17 62.1878 219.162 62.1878C213.487 62.1878 210.613 59.0705 210.538 52.8358ZM254.178 61.6278H241.522C239.021 61.6651 236.762 60.9931 234.746 59.6118C232.768 58.2305 231.125 56.4011 229.818 54.1238C228.773 52.2945 228.045 50.1665 227.634 47.7398C227.224 45.3131 227.317 42.8865 227.914 40.4598C228.549 38.0331 229.744 36.2038 231.498 34.9718C233.253 33.7398 235.138 33.3851 237.154 33.9078C239.618 34.5425 241.578 36.8011 243.034 40.6838C242.848 34.9345 242.344 31.2198 241.522 29.5398C243.538 29.2785 245.797 28.7745 248.298 28.0278C250.837 27.2438 252.797 26.4598 254.178 25.6758C253.357 28.2518 252.928 34.2438 252.89 43.6518C252.853 53.0225 253.282 59.0145 254.178 61.6278ZM239.674 39.8438C237.994 39.7691 237.061 41.1691 236.874 44.0438C236.688 47.3665 237.453 50.9318 239.17 54.7398C240.029 56.6438 241.018 58.2118 242.138 59.4438C242.773 56.2331 243.109 51.7345 243.146 45.9478C242.997 44.7905 242.754 43.7638 242.418 42.8678C242.082 41.9345 241.672 41.2065 241.186 40.6838C240.738 40.1611 240.234 39.8811 239.674 39.8438ZM270.476 48.1878C270.513 46.6198 270.532 45.4998 270.532 44.8278C270.457 44.8651 270.252 45.0518 269.916 45.3878C269.617 45.7238 269.412 45.9478 269.3 46.0598C269.225 46.1345 269.038 46.3398 268.74 46.6758C268.478 46.9745 268.292 47.2171 268.18 47.4038C268.068 47.5531 267.881 47.7958 267.62 48.1318C267.358 48.4305 267.172 48.6918 267.06 48.9158C266.948 49.1398 266.798 49.4385 266.612 49.8118C266.425 50.1478 266.276 50.4651 266.164 50.7638C266.052 51.0625 265.94 51.3985 265.828 51.7718C265.753 52.1451 265.678 52.5185 265.604 52.8918C265.454 53.7878 265.473 54.4971 265.66 55.0198C265.846 55.5425 266.145 55.8038 266.556 55.8038C267.377 55.7291 268.086 55.0385 268.684 53.7318C269.318 52.3878 269.916 50.5398 270.476 48.1878ZM270.476 52.8358C270.102 54.1425 269.71 55.2811 269.3 56.2518C268.926 57.1851 268.404 58.1558 267.732 59.1638C267.097 60.1718 266.276 60.9558 265.268 61.5158C264.297 62.0385 263.158 62.2998 261.852 62.2998C259.761 62.2998 258.1 61.5718 256.868 60.1158C255.673 58.6225 255.132 56.8678 255.244 54.8518C255.393 52.7985 256.196 51.0251 257.652 49.5318C258.697 48.4491 260.004 47.5158 261.572 46.7318C263.14 45.9105 264.521 45.3131 265.716 44.9398C266.948 44.5665 268.086 44.0065 269.132 43.2598C270.214 42.4758 270.905 41.4865 271.204 40.2918C271.502 39.0598 271.446 37.9211 271.036 36.8758C270.662 35.7931 269.841 35.1958 268.572 35.0838C267.937 35.0465 267.302 35.2145 266.668 35.5878C266.07 35.9611 265.604 36.4465 265.268 37.0438C264.969 37.6038 264.913 38.3131 265.1 39.1718C265.286 39.9931 265.79 40.8145 266.612 41.6358C265.828 42.6065 264.764 43.2598 263.42 43.5958C262.076 43.8945 260.788 43.7451 259.556 43.1478C258.361 42.5505 257.596 41.5425 257.26 40.1238C256.998 38.1078 258.212 36.3718 260.9 34.9158C263.849 33.3478 267.116 32.8065 270.7 33.2918C274.993 33.8145 277.886 35.7371 279.38 39.0598C280.014 40.4785 280.332 42.1025 280.332 43.9318L280.388 54.2358C280.388 56.2145 280.574 57.7078 280.948 58.7158C281.321 59.7238 281.918 60.1531 282.74 60.0038C283.822 59.6305 284.233 58.3798 283.972 56.2518C283.748 54.0865 283.02 52.2758 281.788 50.8198C283.916 49.7371 285.558 49.9985 286.716 51.6038C287.724 53.0971 287.873 54.8891 287.164 56.9798C286.342 59.4811 284.588 61.0865 281.9 61.7958C281.041 62.0571 280.108 62.1878 279.1 62.1878C273.425 62.1878 270.55 59.0705 270.476 52.8358Z" fill="white"/>
<path d="M44.52 74.858C45.6613 82.134 49.9057 86.3783 57.253 87.591C53.829 88.233 51.0113 89.6597 48.8 91.871C46.5887 94.0823 45.162 96.8643 44.52 100.217C43.8067 96.793 42.3443 93.9753 40.133 91.764C37.9217 89.4813 35.104 88.0903 31.68 87.591C38.956 86.307 43.236 82.0627 44.52 74.858ZM25.153 109.312L4.502 109.419C6.856 108.42 8.889 107.315 10.601 106.102C12.313 104.818 13.9893 102.892 15.63 100.324C17.342 97.756 18.7687 94.5817 19.91 90.801L25.902 71.22C27.1147 71.2913 28.3273 71.2913 29.54 71.22L23.548 90.908C21.9787 94.974 21.2297 98.291 21.301 100.859C21.3723 103.356 22.6563 106.173 25.153 109.312ZM46.874 59.664C45.0907 62.3033 42.7367 64.4077 39.812 65.977C36.9587 67.475 33.9983 68.2953 30.931 68.438C27.8637 68.5807 24.8677 68.2953 21.943 67.582C19.0897 66.7973 16.593 65.5133 14.453 63.73C12.313 61.8753 10.922 59.6997 10.28 57.203C9.28133 53.4937 9.28133 49.82 10.28 46.182C11.2787 42.4727 13.062 39.2627 15.63 36.552C18.198 33.77 21.3367 31.3803 25.046 29.383C28.8267 27.3143 32.964 26.0303 37.458 25.531C41.952 25.0317 46.5887 25.2457 51.368 26.173C54.0787 26.815 56.504 27.7423 58.644 28.955C60.784 30.1677 62.496 31.3803 63.78 32.593C65.1353 33.8057 66.4193 35.4463 67.632 37.515C68.8447 39.5837 69.7363 41.3313 70.307 42.758C70.949 44.1847 71.7693 46.2533 72.768 48.964C73.9093 51.96 75.443 56.2043 77.369 61.697C79.3663 67.1897 81.1853 72.183 82.826 76.677C84.538 81.0997 86.25 85.3083 87.962 89.303C93.2407 101.715 97.057 108.42 99.411 109.419H66.348C67.3467 108.563 67.8817 107.208 67.953 105.353C68.0957 103.498 67.953 101.822 67.525 100.324C67.1683 98.826 66.5263 96.6503 65.599 93.797C65.5277 93.5117 65.4563 93.2977 65.385 93.155C65.385 93.0123 65.3493 92.834 65.278 92.62C65.2067 92.406 65.1353 92.192 65.064 91.978C60.9267 78.7813 55.0417 62.553 47.409 43.293C47.409 43.2217 47.3733 43.1147 47.302 42.972C46.5887 41.26 45.9467 39.869 45.376 38.799C44.8767 37.6577 44.0563 36.2667 42.915 34.626C41.7737 32.914 40.3827 31.737 38.742 31.095C37.1727 30.453 35.425 30.4173 33.499 30.988C29.5757 32.058 27.186 35.0897 26.33 40.083C25.5453 45.005 26.972 49.6417 30.61 53.993C34.3193 58.3443 39.7407 60.2347 46.874 59.664Z" fill="white"/>
<path d="M118.624 94.0201C118.661 92.4521 118.68 91.3321 118.68 90.6601C118.605 90.6974 118.4 90.8841 118.064 91.2201C117.765 91.5561 117.56 91.7801 117.448 91.8921C117.373 91.9667 117.187 92.1721 116.888 92.5081C116.627 92.8067 116.44 93.0494 116.328 93.2361C116.216 93.3854 116.029 93.6281 115.768 93.9641C115.507 94.2627 115.32 94.5241 115.208 94.7481C115.096 94.9721 114.947 95.2707 114.76 95.6441C114.573 95.9801 114.424 96.2974 114.312 96.5961C114.2 96.8947 114.088 97.2307 113.976 97.6041C113.901 97.9774 113.827 98.3507 113.752 98.7241C113.603 99.6201 113.621 100.329 113.808 100.852C113.995 101.375 114.293 101.636 114.704 101.636C115.525 101.561 116.235 100.871 116.832 99.5641C117.467 98.2201 118.064 96.3721 118.624 94.0201ZM118.624 98.6681C118.251 99.9747 117.859 101.113 117.448 102.084C117.075 103.017 116.552 103.988 115.88 104.996C115.245 106.004 114.424 106.788 113.416 107.348C112.445 107.871 111.307 108.132 110 108.132C107.909 108.132 106.248 107.404 105.016 105.948C103.821 104.455 103.28 102.7 103.392 100.684C103.541 98.6307 104.344 96.8574 105.8 95.3641C106.845 94.2814 108.152 93.3481 109.72 92.5641C111.288 91.7427 112.669 91.1454 113.864 90.7721C115.096 90.3987 116.235 89.8387 117.28 89.0921C118.363 88.3081 119.053 87.3187 119.352 86.1241C119.651 84.8921 119.595 83.7534 119.184 82.7081C118.811 81.6254 117.989 81.0281 116.72 80.9161C116.085 80.8787 115.451 81.0467 114.816 81.4201C114.219 81.7934 113.752 82.2787 113.416 82.8761C113.117 83.4361 113.061 84.1454 113.248 85.0041C113.435 85.8254 113.939 86.6467 114.76 87.4681C113.976 88.4387 112.912 89.0921 111.568 89.4281C110.224 89.7267 108.936 89.5774 107.704 88.9801C106.509 88.3827 105.744 87.3747 105.408 85.9561C105.147 83.9401 106.36 82.2041 109.048 80.7481C111.997 79.1801 115.264 78.6387 118.848 79.1241C123.141 79.6467 126.035 81.5694 127.528 84.8921C128.163 86.3107 128.48 87.9347 128.48 89.7641L128.536 100.068C128.536 102.047 128.723 103.54 129.096 104.548C129.469 105.556 130.067 105.985 130.888 105.836C131.971 105.463 132.381 104.212 132.12 102.084C131.896 99.9187 131.168 98.1081 129.936 96.6521C132.064 95.5694 133.707 95.8307 134.864 97.4361C135.872 98.9294 136.021 100.721 135.312 102.812C134.491 105.313 132.736 106.919 130.048 107.628C129.189 107.889 128.256 108.02 127.248 108.02C121.573 108.02 118.699 104.903 118.624 98.6681ZM135.218 79.9081C137.234 79.5347 139.362 78.9187 141.602 78.0601C143.879 77.1641 145.578 76.2681 146.698 75.3721V79.9081H151.626V81.8121C151.066 81.8121 150.226 81.8121 149.106 81.8121C147.986 81.8121 147.164 81.8121 146.642 81.8121C146.679 92.0041 146.716 98.0894 146.754 100.068C146.754 102.047 146.922 103.54 147.258 104.548C147.631 105.556 148.228 105.985 149.05 105.836C150.17 105.463 150.599 104.212 150.338 102.084C150.076 99.9187 149.33 98.1081 148.098 96.6521C150.263 95.5694 151.906 95.8307 153.026 97.4361C154.071 98.9294 154.239 100.721 153.53 102.812C152.708 105.313 150.935 106.919 148.21 107.628C147.351 107.852 146.436 107.983 145.466 108.02C139.679 108.02 136.785 104.809 136.785 98.3881C136.785 97.3801 136.785 96.0361 136.785 94.3561C136.823 92.6387 136.823 91.4254 136.785 90.7161C136.785 90.0067 136.767 89.0547 136.73 87.8601C136.73 86.6654 136.692 85.7881 136.618 85.2281C136.58 84.6681 136.506 84.0147 136.394 83.2681C136.282 82.5214 136.132 81.9054 135.946 81.4201C135.759 80.8974 135.516 80.3934 135.218 79.9081ZM180.453 98.0521C180.154 100.367 179.202 102.383 177.597 104.1C175.991 105.78 174.013 106.956 171.661 107.628C167.927 108.636 164.437 108.151 161.189 106.172C159.322 105.052 157.829 103.596 156.709 101.804C155.626 99.9747 154.954 98.0894 154.693 96.1481C154.469 94.2067 154.599 92.2467 155.085 90.2681C155.57 88.2521 156.354 86.4601 157.437 84.8921C158.557 83.2867 160.031 81.9987 161.861 81.0281C163.69 80.0201 165.687 79.5161 167.853 79.5161C171.213 79.5161 174.106 80.7107 176.533 83.1001C178.959 85.4894 180.322 88.4574 180.621 92.0041H162.141C163.074 93.8334 164.381 95.3827 166.061 96.6521C167.778 97.8841 169.869 98.7054 172.333 99.1161C174.797 99.5267 177.503 99.1721 180.453 98.0521ZM164.269 77.7801L167.181 71.5081H170.933L166.117 77.7801H164.269ZM161.469 83.1001C160.759 83.2494 160.367 83.9774 160.293 85.2841C160.218 86.5534 160.554 88.1587 161.301 90.1001H168.861C168.151 88.0467 167.013 86.3107 165.445 84.8921C163.877 83.4734 162.551 82.8761 161.469 83.1001ZM210.28 94.0201C210.318 92.4521 210.336 91.3321 210.336 90.6601C210.262 90.6974 210.056 90.8841 209.72 91.2201C209.422 91.5561 209.216 91.7801 209.104 91.8921C209.03 91.9667 208.843 92.1721 208.544 92.5081C208.283 92.8067 208.096 93.0494 207.984 93.2361C207.872 93.3854 207.686 93.6281 207.424 93.9641C207.163 94.2627 206.976 94.5241 206.864 94.7481C206.752 94.9721 206.603 95.2707 206.416 95.6441C206.23 95.9801 206.08 96.2974 205.968 96.5961C205.856 96.8947 205.744 97.2307 205.632 97.6041C205.558 97.9774 205.483 98.3507 205.408 98.7241C205.259 99.6201 205.278 100.329 205.464 100.852C205.651 101.375 205.95 101.636 206.36 101.636C207.182 101.561 207.891 100.871 208.488 99.5641C209.123 98.2201 209.72 96.3721 210.28 94.0201ZM210.28 98.6681C209.907 99.9747 209.515 101.113 209.104 102.084C208.731 103.017 208.208 103.988 207.536 104.996C206.902 106.004 206.08 106.788 205.072 107.348C204.102 107.871 202.963 108.132 201.656 108.132C199.566 108.132 197.904 107.404 196.672 105.948C195.478 104.455 194.936 102.7 195.048 100.684C195.198 98.6307 196 96.8574 197.456 95.3641C198.502 94.2814 199.808 93.3481 201.376 92.5641C202.944 91.7427 204.326 91.1454 205.52 90.7721C206.752 90.3987 207.891 89.8387 208.936 89.0921C210.019 88.3081 210.71 87.3187 211.008 86.1241C211.307 84.8921 211.251 83.7534 210.84 82.7081C210.467 81.6254 209.646 81.0281 208.376 80.9161C207.742 80.8787 207.107 81.0467 206.472 81.4201C205.875 81.7934 205.408 82.2787 205.072 82.8761C204.774 83.4361 204.718 84.1454 204.904 85.0041C205.091 85.8254 205.595 86.6467 206.416 87.4681C205.632 88.4387 204.568 89.0921 203.224 89.4281C201.88 89.7267 200.592 89.5774 199.36 88.9801C198.166 88.3827 197.4 87.3747 197.064 85.9561C196.803 83.9401 198.016 82.2041 200.704 80.7481C203.654 79.1801 206.92 78.6387 210.504 79.1241C214.798 79.6467 217.691 81.5694 219.184 84.8921C219.819 86.3107 220.136 87.9347 220.136 89.7641L220.192 100.068C220.192 102.047 220.379 103.54 220.752 104.548C221.126 105.556 221.723 105.985 222.544 105.836C223.627 105.463 224.038 104.212 223.776 102.084C223.552 99.9187 222.824 98.1081 221.592 96.6521C223.72 95.5694 225.363 95.8307 226.52 97.4361C227.528 98.9294 227.678 100.721 226.968 102.812C226.147 105.313 224.392 106.919 221.704 107.628C220.846 107.889 219.912 108.02 218.904 108.02C213.23 108.02 210.355 104.903 210.28 98.6681ZM254.575 117.708H241.807C242.442 115.767 242.909 112.444 243.207 107.74C240.37 108.113 237.831 107.609 235.591 106.228C233.351 104.809 231.522 102.849 230.103 100.348C229.058 98.5187 228.311 96.3721 227.863 93.9081C227.453 91.4067 227.527 88.9241 228.087 86.4601C228.685 83.9587 229.861 82.0921 231.615 80.8601C233.37 79.6281 235.255 79.2734 237.271 79.7961C239.474 80.3561 241.341 82.3721 242.871 85.8441C242.61 83.2307 242.255 81.2521 241.807 79.9081H254.575C253.567 83.4174 253.063 89.7827 253.063 99.0041C253.101 108.225 253.605 114.46 254.575 117.708ZM239.959 86.0681C238.317 85.9934 237.383 87.2814 237.159 89.9321C236.935 92.5827 237.402 95.5881 238.559 98.9481C239.754 102.271 241.322 104.791 243.263 106.508C243.562 101.58 243.581 96.6521 243.319 91.7241C243.058 90.0441 242.629 88.7001 242.031 87.6921C241.434 86.6467 240.743 86.1054 239.959 86.0681ZM284.086 79.9081C283.265 81.9987 282.798 86.3854 282.686 93.0681C282.611 99.7507 283.078 104.548 284.086 107.46H271.878C272.923 105.033 273.465 101.188 273.502 95.9241L273.446 96.0921C272.737 98.9294 271.934 101.281 271.038 103.148C270.142 104.977 268.985 106.303 267.566 107.124C266.707 107.647 265.718 107.964 264.598 108.076C263.478 108.151 262.339 107.908 261.182 107.348C260.062 106.751 259.222 105.817 258.662 104.548C258.027 103.167 257.654 101.169 257.542 98.5561C257.43 95.9427 257.299 93.1614 257.15 90.2121C257.001 87.2627 256.571 84.8174 255.862 82.8761C260.155 82.3534 263.833 81.3641 266.894 79.9081V92.1161C266.894 98.5001 267.547 101.673 268.854 101.636C269.713 101.561 270.441 100.852 271.038 99.5081C271.673 98.1267 272.27 96.2414 272.83 93.8521C273.017 93.1054 273.185 92.3401 273.334 91.5561C273.073 87.1507 272.587 84.2574 271.878 82.8761C273.819 82.6894 276.003 82.2974 278.43 81.7001C280.857 81.1027 282.742 80.5054 284.086 79.9081ZM297.716 107.46H285.508C286.329 105.593 286.833 103.409 287.02 100.908C287.207 98.3694 287.132 96.0921 286.796 94.0761C286.497 92.0227 286.068 90.4361 285.508 89.3161C287.785 89.3161 290.025 89.0734 292.228 88.5881C294.468 88.1027 296.297 87.3747 297.716 86.4041C296.895 88.4947 296.428 91.7987 296.316 96.3161C296.241 100.833 296.708 104.548 297.716 107.46ZM287.3 85.0041C286.143 84.1081 285.564 83.0254 285.564 81.7561C285.564 80.4867 286.143 79.4041 287.3 78.5081C288.495 77.6121 289.932 77.1641 291.612 77.1641C293.292 77.1641 294.729 77.6121 295.924 78.5081C297.119 79.4041 297.716 80.4867 297.716 81.7561C297.716 83.0254 297.119 84.1081 295.924 85.0041C294.729 85.8627 293.292 86.2921 291.612 86.2921C289.932 86.2921 288.495 85.8627 287.3 85.0041Z" fill="white"/>
</g>
<defs>
<filter id="filter0_d_114_8" x="0.502014" y="0" width="302.498" height="165" filterUnits="userSpaceOnUse" color-interpolation-filters="sRGB">
<feFlood flood-opacity="0" result="BackgroundImageFix"/>
<feColorMatrix in="SourceAlpha" type="matrix" values="0 0 0 0 0 0 0 0 0 0 0 0 0 0 0 0 0 0 127 0" result="hardAlpha"/>
<feOffset dy="4"/>
<feGaussianBlur stdDeviation="2"/>
<feComposite in2="hardAlpha" operator="out"/>
<feColorMatrix type="matrix" values="0 0 0 0 0 0 0 0 0 0 0 0 0 0 0 0 0 0 0.25 0"/>
<feBlend mode="normal" in2="BackgroundImageFix" result="effect1_dropShadow_114_8"/>
<feBlend mode="normal" in="SourceGraphic" in2="effect1_dropShadow_114_8" result="shape"/>
</filter>
</defs>
</svg>
