<svg width="355" height="131" viewBox="0 0 355 131" fill="none" xmlns="http://www.w3.org/2000/svg">
<g filter="url(#filter0_d_131_7)">
<path d="M4.84 39.56C4.28 35.9387 4.448 32.4293 5.344 29.032C6.27733 25.6347 7.752 22.6667 9.768 20.128C11.8213 17.5893 14.416 15.5547 17.552 14.024C20.7253 12.4933 24.16 11.728 27.856 11.728C30.9547 11.728 33.7173 12.3627 36.144 13.632C38.608 14.9013 40.4747 16.712 41.744 19.064C43.0507 21.3787 43.5173 23.9733 43.144 26.848C42.92 28.8267 42.1547 30.6933 40.848 32.448C39.5413 34.1653 37.9547 35.472 36.088 36.368C34.632 37.0773 32.9707 37.4507 31.104 37.488C29.2373 37.488 27.4827 37.1333 25.84 36.424C24.3467 35.752 23.1147 34.7627 22.144 33.456C21.2107 32.1493 20.6507 30.768 20.464 29.312C20.2773 27.856 20.464 26.4 21.024 24.944C21.6213 23.488 22.5733 22.3307 23.88 21.472C24.2533 22.7413 24.8133 23.824 25.56 24.72C26.3067 25.5787 27.128 26.1947 28.024 26.568C28.9573 26.9413 29.928 27.184 30.936 27.296C31.9813 27.3707 32.952 27.24 33.848 26.904C35.304 26.4933 36.368 25.8027 37.04 24.832C37.7493 23.824 38.104 22.7227 38.104 21.528C38.0293 19.4 37.0213 17.6267 35.08 16.208C33.176 14.7893 30.768 14.2667 27.856 14.64C26.1387 14.864 24.5707 15.4427 23.152 16.376C21.7707 17.272 20.632 18.3733 19.736 19.68C18.8773 20.9867 18.112 22.48 17.44 24.16C16.768 25.8027 16.32 27.5013 16.096 29.256C15.872 30.9733 15.7227 32.6907 15.648 34.408C15.5733 36.1253 15.6853 37.712 15.984 39.168C16.32 41.4827 16.8427 43.536 17.552 45.328C18.2613 47.0827 19.064 48.464 19.96 49.472C20.856 50.48 21.8267 51.2453 22.872 51.768C23.9173 52.2533 24.9253 52.4773 25.896 52.44C26.904 52.4027 27.8747 52.104 28.808 51.544C30.5253 50.536 31.7573 48.8933 32.504 46.616C33.2507 44.3387 33.1387 42.304 32.168 40.512C34.408 41.0347 36.7787 40.9227 39.28 40.176C41.7813 39.392 43.6293 38.4027 44.824 37.208C44.04 39.336 43.648 42.64 43.648 47.12C43.6853 51.6 44.0587 54.8853 44.768 56.976H32.224C32.7467 55.5573 33.12 53.616 33.344 51.152C32.1493 53.4293 30.4133 55.0347 28.136 55.968C25.896 56.864 23.5627 57.144 21.136 56.808C18.7467 56.472 16.4133 55.6693 14.136 54.4C11.5973 53.0187 9.52533 50.984 7.92 48.296C6.31467 45.5707 5.288 42.6587 4.84 39.56ZM74.1798 29.2C73.3585 31.2907 72.8918 35.6773 72.7798 42.36C72.7051 49.0427 73.1718 53.84 74.1798 56.752H61.9718C63.0171 54.3253 63.5585 50.48 63.5958 45.216L63.5398 45.384C62.8305 48.2213 62.0278 50.5733 61.1318 52.44C60.2358 54.2693 59.0785 55.5947 57.6598 56.416C56.8011 56.9387 55.8118 57.256 54.6918 57.368C53.5718 57.4427 52.4331 57.2 51.2758 56.64C50.1558 56.0427 49.3158 55.1093 48.7558 53.84C48.1211 52.4587 47.7478 50.4613 47.6358 47.848C47.5238 45.2347 47.3931 42.4533 47.2438 39.504C47.0945 36.5547 46.6651 34.1093 45.9558 32.168C50.2491 31.6453 53.9265 30.656 56.9878 29.2V41.408C56.9878 47.792 57.6411 50.9653 58.9478 50.928C59.8065 50.8533 60.5345 50.144 61.1318 48.8C61.7665 47.4187 62.3638 45.5333 62.9238 43.144C63.1105 42.3973 63.2785 41.632 63.4278 40.848C63.1665 36.4427 62.6811 33.5493 61.9718 32.168C63.9131 31.9813 66.0971 31.5893 68.5238 30.992C70.9505 30.3947 72.8358 29.7973 74.1798 29.2ZM90.5537 43.312C90.5537 41.744 90.5724 40.624 90.6097 39.952C90.4977 40.0267 90.3484 40.176 90.1617 40.4C89.3404 41.2213 88.7057 41.8933 88.2577 42.416C87.8097 42.9387 87.3057 43.7227 86.7457 44.768C86.223 45.8133 85.8684 46.896 85.6817 48.016C85.5324 48.912 85.551 49.6213 85.7377 50.144C85.9244 50.6667 86.223 50.928 86.6337 50.928C87.455 50.8533 88.1644 50.1627 88.7617 48.856C89.3964 47.512 89.9937 45.664 90.5537 43.312ZM127.458 38.72C127.047 41.4453 125.74 43.368 123.538 44.488C121.335 45.5707 119.02 45.4027 116.594 43.984C117.042 43.6853 117.434 43.1813 117.77 42.472C118.143 41.7253 118.404 40.96 118.554 40.176C118.74 39.3547 118.834 38.5707 118.834 37.824C118.871 37.0773 118.815 36.4613 118.666 35.976C118.516 35.4533 118.292 35.1733 117.994 35.136C117.658 35.0987 117.303 35.2293 116.93 35.528C116.594 35.8267 116.276 36.2933 115.978 36.928C115.716 37.5253 115.474 38.0853 115.25 38.608C115.026 39.1307 114.802 39.8213 114.578 40.68C114.354 41.5013 114.204 42.0987 114.13 42.472C114.055 42.808 113.943 43.2747 113.794 43.872C113.831 50.1067 114.316 54.4 115.25 56.752C112.86 55.8187 108.903 55.744 103.378 56.528C102.22 56.6773 101.231 56.7893 100.41 56.864C99.5884 56.9387 98.6924 56.976 97.7217 56.976C96.7884 56.9387 96.0044 56.8267 95.3697 56.64C94.735 56.4533 94.0817 56.1547 93.4097 55.744C92.775 55.296 92.2524 54.736 91.8417 54.064C91.4684 53.392 91.151 52.552 90.8897 51.544C90.6657 50.4987 90.5537 49.304 90.5537 47.96C90.1804 49.2667 89.7884 50.4053 89.3777 51.376C89.0044 52.3093 88.4817 53.28 87.8097 54.288C87.175 55.296 86.3537 56.08 85.3457 56.64C84.375 57.1627 83.2364 57.424 81.9297 57.424C79.839 57.424 78.1777 56.696 76.9457 55.24C75.751 53.7467 75.2097 51.992 75.3217 49.976C75.471 47.9227 76.2737 46.1493 77.7297 44.656C78.775 43.5733 80.0817 42.64 81.6497 41.856C83.2177 41.0347 84.599 40.4373 85.7937 40.064C87.0257 39.6907 88.1644 39.1307 89.2097 38.384C90.2924 37.6 90.983 36.6107 91.2817 35.416C91.5804 34.184 91.5244 33.0453 91.1137 32C90.703 30.9173 89.8817 30.3387 88.6497 30.264C88.015 30.1893 87.3804 30.3387 86.7457 30.712C86.1484 31.0853 85.6817 31.5707 85.3457 32.168C85.0097 32.728 84.935 33.4373 85.1217 34.296C85.3457 35.1173 85.8684 35.9387 86.6897 36.76C85.9057 37.7307 84.8417 38.384 83.4977 38.72C82.1537 39.0187 80.8657 38.8693 79.6337 38.272C78.439 37.6747 77.6737 36.6667 77.3377 35.248C77.0764 33.232 78.2897 31.496 80.9777 30.04C83.927 28.472 87.1937 27.9307 90.7777 28.416C95.071 28.9387 97.9644 30.8613 99.4577 34.184C100.092 35.6027 100.41 37.2267 100.41 39.056L100.466 49.36C100.466 53.4293 101.399 55.2587 103.266 54.848C104.348 54.624 105.562 53.7093 106.906 52.104C108.287 50.4613 109.444 48.8 110.378 47.12C111.311 45.4027 112.02 43.8347 112.506 42.416C112.767 41.7813 113.103 40.8107 113.514 39.504C113.962 38.16 114.372 37.0027 114.746 36.032C115.156 35.024 115.604 34.072 116.09 33.176C117.658 30.3013 119.543 28.9387 121.746 29.088C123.724 29.2 125.255 30.264 126.338 32.28C127.458 34.296 127.831 36.4427 127.458 38.72ZM113.794 33.568C113.458 35.3227 112.842 37.4507 111.946 39.952C111.05 42.416 109.836 44.936 108.306 47.512C106.775 50.0507 105.263 51.656 103.77 52.328C104.292 48.632 104.404 44.6 104.106 40.232C103.807 35.864 103.303 33.008 102.594 31.664C106.476 31.2907 110.21 30.4693 113.794 29.2V33.568ZM156.124 56.752H143.468C140.966 56.7893 138.708 56.1173 136.692 54.736C134.713 53.3547 133.07 51.5253 131.764 49.248C130.718 47.4187 129.99 45.2907 129.58 42.864C129.169 40.4373 129.262 38.0107 129.86 35.584C130.494 33.1573 131.689 31.328 133.444 30.096C135.198 28.864 137.084 28.5093 139.1 29.032C141.564 29.6667 143.524 31.9253 144.98 35.808C144.793 30.0587 144.289 26.344 143.468 24.664C145.484 24.4027 147.742 23.8987 150.244 23.152C152.782 22.368 154.742 21.584 156.124 20.8C155.302 23.376 154.873 29.368 154.836 38.776C154.798 48.1467 155.228 54.1387 156.124 56.752ZM141.62 34.968C139.94 34.8933 139.006 36.2933 138.82 39.168C138.633 42.4907 139.398 46.056 141.116 49.864C141.974 51.768 142.964 53.336 144.084 54.568C144.718 51.3573 145.054 46.8587 145.092 41.072C144.942 39.9147 144.7 38.888 144.364 37.992C144.028 37.0587 143.617 36.3307 143.132 35.808C142.684 35.2853 142.18 35.0053 141.62 34.968ZM169.677 56.752H157.469C158.29 54.8853 158.794 52.7013 158.981 50.2C159.168 47.6613 159.093 45.384 158.757 43.368C158.458 41.3147 158.029 39.728 157.469 38.608C159.746 38.608 161.986 38.3653 164.189 37.88C166.429 37.3947 168.258 36.6667 169.677 35.696C168.856 37.7867 168.389 41.0907 168.277 45.608C168.202 50.1253 168.669 53.84 169.677 56.752ZM159.261 34.296C158.104 33.4 157.525 32.3173 157.525 31.048C157.525 29.7787 158.104 28.696 159.261 27.8C160.456 26.904 161.893 26.456 163.573 26.456C165.253 26.456 166.69 26.904 167.885 27.8C169.08 28.696 169.677 29.7787 169.677 31.048C169.677 32.3173 169.08 33.4 167.885 34.296C166.69 35.1547 165.253 35.584 163.573 35.584C161.893 35.584 160.456 35.1547 159.261 34.296ZM171.421 38.16C172.354 34.464 174.389 31.776 177.525 30.096C180.661 28.416 183.983 28.2293 187.493 29.536C191.039 30.8427 193.727 33.2507 195.557 36.76C197.386 40.2693 197.834 43.872 196.901 47.568C195.967 51.2267 193.933 53.896 190.797 55.576C187.661 57.256 184.319 57.4427 180.773 56.136C177.263 54.8293 174.594 52.4213 172.765 48.912C170.935 45.4027 170.487 41.8187 171.421 38.16ZM188.781 26.68C187.959 26.8293 186.746 26.4187 185.141 25.448C183.535 24.4773 182.527 23.9173 182.117 23.768C181.109 23.4693 180.213 23.656 179.429 24.328C178.682 25 178.327 25.952 178.365 27.184C177.506 26.8107 176.983 26.176 176.797 25.28C176.647 24.3467 176.815 23.4693 177.301 22.648C177.823 21.8267 178.551 21.3413 179.485 21.192C180.007 21.1173 180.567 21.192 181.165 21.416C181.799 21.64 182.359 21.92 182.845 22.256C183.367 22.592 183.946 22.9467 184.581 23.32C185.215 23.6933 185.757 23.9547 186.205 24.104C186.877 24.2907 187.493 24.272 188.053 24.048C188.65 23.7867 189.117 23.3573 189.453 22.76C189.789 22.1627 189.957 21.472 189.957 20.688C190.815 21.0613 191.319 21.7147 191.469 22.648C191.655 23.544 191.487 24.4027 190.965 25.224C190.479 26.0453 189.751 26.5307 188.781 26.68ZM186.933 41.352C185.365 38.2533 183.741 35.808 182.061 34.016C180.418 32.224 179.205 31.5333 178.421 31.944C177.637 32.3547 177.525 33.7547 178.085 36.144C178.645 38.496 179.727 41.2213 181.333 44.32C182.938 47.3813 184.562 49.8267 186.205 51.656C187.885 53.448 189.117 54.1387 189.901 53.728C190.647 53.3173 190.741 51.9173 190.181 49.528C189.658 47.1387 188.575 44.4133 186.933 41.352ZM224.133 47.344C224.021 48.2773 223.778 49.1733 223.405 50.032C223.069 50.8533 222.639 51.6187 222.117 52.328C221.594 53.0373 220.978 53.6907 220.269 54.288C219.597 54.8853 218.831 55.408 217.973 55.856C217.151 56.304 216.274 56.6587 215.341 56.92C211.607 57.928 208.117 57.4427 204.869 55.464C203.002 54.344 201.509 52.888 200.389 51.096C199.306 49.2667 198.634 47.3813 198.373 45.44C198.149 43.4987 198.279 41.5387 198.765 39.56C199.25 37.544 200.034 35.752 201.117 34.184C202.237 32.5787 203.711 31.2907 205.541 30.32C207.37 29.312 209.367 28.808 211.533 28.808C214.893 28.808 217.786 30.0027 220.213 32.392C222.639 34.7813 224.002 37.7493 224.301 41.296H205.821C206.754 43.1253 208.061 44.6747 209.741 45.944C211.458 47.176 213.549 47.9973 216.013 48.408C218.477 48.8187 221.183 48.464 224.133 47.344ZM205.149 32.392C204.439 32.5413 204.047 33.2693 203.973 34.576C203.898 35.8453 204.234 37.4507 204.981 39.392H212.541C211.831 37.3387 210.693 35.6027 209.125 34.184C207.557 32.7653 206.231 32.168 205.149 32.392ZM229.477 33.4C230.112 32.0933 231.157 31.0107 232.613 30.152C234.107 29.2933 235.675 28.7707 237.317 28.584C238.997 28.36 240.621 28.36 242.189 28.584C243.795 28.7707 245.139 29.312 246.221 30.208C247.304 31.0667 247.864 32.1307 247.901 33.4C247.939 34.2213 247.696 34.9493 247.173 35.584C246.688 36.2187 246.035 36.6667 245.213 36.928C244.429 37.152 243.589 37.2267 242.693 37.152C241.835 37.0773 241.013 36.7787 240.229 36.256C239.445 35.7333 238.848 35.0053 238.437 34.072C239.52 33.7733 240.173 33.3253 240.397 32.728C240.659 32.0933 240.528 31.5333 240.005 31.048C239.483 30.5627 238.792 30.3013 237.933 30.264C236.925 30.2267 236.197 30.5627 235.749 31.272C235.301 31.944 235.152 32.6347 235.301 33.344C235.339 33.5307 235.376 33.6987 235.413 33.848C235.488 33.9973 235.581 34.1653 235.693 34.352C235.843 34.5013 235.955 34.6507 236.029 34.8C236.141 34.912 236.291 35.0427 236.477 35.192C236.664 35.3413 236.795 35.472 236.869 35.584C236.981 35.6587 237.168 35.7893 237.429 35.976C237.691 36.1627 237.859 36.2933 237.933 36.368C238.045 36.4053 238.251 36.5173 238.549 36.704C238.848 36.8907 239.035 37.0213 239.109 37.096C243.403 39.896 246.016 41.6507 246.949 42.36C248.368 43.4053 249.451 44.4133 250.197 45.384C250.981 46.3547 251.467 47.456 251.653 48.688C251.877 50.1813 251.635 51.5253 250.925 52.72C250.253 53.8773 249.245 54.8107 247.901 55.52C246.557 56.2293 245.083 56.7707 243.477 57.144C241.872 57.48 240.192 57.6667 238.437 57.704C233.621 57.7787 230.149 57.1253 228.021 55.744C225.893 54.3627 224.867 52.664 224.941 50.648C224.979 49.4533 225.445 48.464 226.341 47.68C227.275 46.896 228.507 46.4853 230.037 46.448C231.605 46.4107 233.416 46.952 235.469 48.072C234.611 48.744 234.088 49.5653 233.901 50.536C233.715 51.4693 233.808 52.328 234.181 53.112C234.592 53.896 235.264 54.568 236.197 55.128C237.131 55.6507 238.176 55.8933 239.333 55.856C240.715 55.7813 241.685 55.2027 242.245 54.12C242.544 53.672 242.637 53.2053 242.525 52.72C242.451 52.1973 242.301 51.7493 242.077 51.376C241.853 50.9653 241.499 50.536 241.013 50.088C240.565 49.64 240.099 49.2293 239.613 48.856C239.128 48.4827 238.568 48.1093 237.933 47.736C237.299 47.3253 236.72 46.9707 236.197 46.672C235.712 46.3733 235.189 46.0747 234.629 45.776C234.107 45.44 233.677 45.1413 233.341 44.88C231.848 43.7973 230.691 42.5653 229.869 41.184C229.085 39.8027 228.675 38.4773 228.637 37.208C228.637 35.9013 228.917 34.632 229.477 33.4Z" fill="white"/>
<path d="M31.272 103.752H18.616C16.1147 103.789 13.856 103.117 11.84 101.736C9.86133 100.355 8.21867 98.5253 6.912 96.248C5.86667 94.4187 5.13867 92.2907 4.728 89.864C4.31733 87.4373 4.41067 85.0107 5.008 82.584C5.64267 80.1573 6.83733 78.328 8.592 77.096C10.3467 75.864 12.232 75.5093 14.248 76.032C16.712 76.6667 18.672 78.9253 20.128 82.808C19.9413 77.0587 19.4373 73.344 18.616 71.664C20.632 71.4027 22.8907 70.8987 25.392 70.152C27.9307 69.368 29.8907 68.584 31.272 67.8C30.4507 70.376 30.0213 76.368 29.984 85.776C29.9467 95.1467 30.376 101.139 31.272 103.752ZM16.768 81.968C15.088 81.8933 14.1547 83.2933 13.968 86.168C13.7813 89.4907 14.5467 93.056 16.264 96.864C17.1227 98.768 18.112 100.336 19.232 101.568C19.8667 98.3573 20.2027 93.8587 20.24 88.072C20.0907 86.9147 19.848 85.888 19.512 84.992C19.176 84.0587 18.7653 83.3307 18.28 82.808C17.832 82.2853 17.328 82.0053 16.768 81.968ZM47.5693 90.312C47.6066 88.744 47.6253 87.624 47.6253 86.952C47.5506 86.9893 47.3453 87.176 47.0093 87.512C46.7106 87.848 46.5053 88.072 46.3933 88.184C46.3186 88.2587 46.132 88.464 45.8333 88.8C45.572 89.0987 45.3853 89.3413 45.2733 89.528C45.1613 89.6773 44.9746 89.92 44.7133 90.256C44.452 90.5547 44.2653 90.816 44.1533 91.04C44.0413 91.264 43.892 91.5627 43.7053 91.936C43.5186 92.272 43.3693 92.5893 43.2573 92.888C43.1453 93.1867 43.0333 93.5227 42.9213 93.896C42.8466 94.2693 42.772 94.6427 42.6973 95.016C42.548 95.912 42.5666 96.6213 42.7533 97.144C42.94 97.6667 43.2386 97.928 43.6493 97.928C44.4706 97.8533 45.18 97.1627 45.7773 95.856C46.412 94.512 47.0093 92.664 47.5693 90.312ZM47.5693 94.96C47.196 96.2667 46.804 97.4053 46.3933 98.376C46.02 99.3093 45.4973 100.28 44.8253 101.288C44.1906 102.296 43.3693 103.08 42.3613 103.64C41.3906 104.163 40.252 104.424 38.9453 104.424C36.8546 104.424 35.1933 103.696 33.9613 102.24C32.7666 100.747 32.2253 98.992 32.3373 96.976C32.4866 94.9227 33.2893 93.1493 34.7453 91.656C35.7906 90.5733 37.0973 89.64 38.6653 88.856C40.2333 88.0347 41.6146 87.4373 42.8093 87.064C44.0413 86.6907 45.18 86.1307 46.2253 85.384C47.308 84.6 47.9986 83.6107 48.2973 82.416C48.596 81.184 48.54 80.0453 48.1293 79C47.756 77.9173 46.9346 77.32 45.6653 77.208C45.0306 77.1707 44.396 77.3387 43.7613 77.712C43.164 78.0853 42.6973 78.5707 42.3613 79.168C42.0626 79.728 42.0066 80.4373 42.1933 81.296C42.38 82.1173 42.884 82.9387 43.7053 83.76C42.9213 84.7307 41.8573 85.384 40.5133 85.72C39.1693 86.0187 37.8813 85.8693 36.6493 85.272C35.4546 84.6747 34.6893 83.6667 34.3533 82.248C34.092 80.232 35.3053 78.496 37.9933 77.04C40.9426 75.472 44.2093 74.9307 47.7933 75.416C52.0866 75.9387 54.98 77.8613 56.4733 81.184C57.108 82.6027 57.4253 84.2267 57.4253 86.056L57.4813 96.36C57.4813 98.3387 57.668 99.832 58.0413 100.84C58.4146 101.848 59.012 102.277 59.8333 102.128C60.916 101.755 61.3266 100.504 61.0653 98.376C60.8413 96.2107 60.1133 94.4 58.8813 92.944C61.0093 91.8613 62.652 92.1227 63.8093 93.728C64.8173 95.2213 64.9666 97.0133 64.2573 99.104C63.436 101.605 61.6813 103.211 58.9933 103.92C58.1346 104.181 57.2013 104.312 56.1933 104.312C50.5186 104.312 47.644 101.195 47.5693 94.96ZM85.5469 79.392C84.5389 79.616 84.1656 80.792 84.4269 82.92C84.7629 85.8693 86.0136 88.576 88.1789 91.04C91.7629 95.072 96.3736 96.4347 102.011 95.128L104.531 94.344C104.419 95.2773 104.176 96.1733 103.803 97.032C103.467 97.8533 103.038 98.6187 102.515 99.328C101.992 100.037 101.376 100.691 100.667 101.288C99.9949 101.885 99.2296 102.408 98.3709 102.856C97.5496 103.304 96.6723 103.659 95.7389 103.92C92.0056 104.928 88.5149 104.443 85.2669 102.464C83.6616 101.493 82.3176 100.28 81.2349 98.824C80.1896 97.3307 79.4803 95.7627 79.1069 94.12C78.7709 92.4773 78.6403 90.7973 78.7149 89.08C78.7896 87.3253 79.1816 85.664 79.8909 84.096C80.6376 82.528 81.5336 81.128 82.5789 79.896C83.6616 78.6267 85.0243 77.6373 86.6669 76.928C88.3096 76.1813 90.0643 75.808 91.9309 75.808C94.6563 75.808 96.4856 76.7227 97.4189 78.552C98.3523 80.3813 98.3336 82.2293 97.3629 84.096C96.4296 85.9253 95.0109 86.84 93.1069 86.84C92.5843 84.7867 91.4643 82.976 89.7469 81.408C88.0669 79.84 86.6669 79.168 85.5469 79.392ZM132.844 103.752H120.58C121.401 101.885 121.905 99.7013 122.092 97.2C122.278 94.6613 122.204 92.384 121.868 90.368C121.569 88.3147 121.14 86.728 120.58 85.608C122.857 85.608 125.097 85.3653 127.3 84.88C129.54 84.3947 131.388 83.6667 132.844 82.696C131.985 84.7867 131.5 88.0907 131.388 92.608C131.313 97.1253 131.798 100.84 132.844 103.752ZM118.06 103.752H105.348C106.206 101.885 106.729 99.104 106.916 95.408C107.14 91.712 107.084 88.2773 106.748 85.104C106.412 81.8933 105.945 79.7467 105.348 78.664C109.268 78.2907 113.02 77.4693 116.604 76.2V79.112C117.425 77.88 118.788 76.648 120.692 75.416C122.596 74.184 124.201 73.568 125.508 73.568C125.881 73.4933 126.273 73.456 126.684 73.456C128.364 73.456 129.801 73.904 130.996 74.8C132.19 75.696 132.788 76.7787 132.788 78.048C132.788 79.3173 132.19 80.4 130.996 81.296C129.801 82.1547 128.364 82.584 126.684 82.584C125.9 82.584 124.761 82.2667 123.268 81.632C121.774 80.9973 120.766 80.736 120.244 80.848C119.46 80.9973 118.75 81.3707 118.116 81.968C117.518 82.528 117.145 83.144 116.996 83.816C116.772 85.1227 116.622 87.0453 116.548 89.584C116.51 92.0853 116.604 94.736 116.828 97.536C117.089 100.336 117.5 102.408 118.06 103.752ZM149.179 90.312C149.216 88.744 149.235 87.624 149.235 86.952C149.16 86.9893 148.955 87.176 148.619 87.512C148.32 87.848 148.115 88.072 148.003 88.184C147.928 88.2587 147.741 88.464 147.443 88.8C147.181 89.0987 146.995 89.3413 146.883 89.528C146.771 89.6773 146.584 89.92 146.323 90.256C146.061 90.5547 145.875 90.816 145.763 91.04C145.651 91.264 145.501 91.5627 145.315 91.936C145.128 92.272 144.979 92.5893 144.867 92.888C144.755 93.1867 144.643 93.5227 144.531 93.896C144.456 94.2693 144.381 94.6427 144.307 95.016C144.157 95.912 144.176 96.6213 144.363 97.144C144.549 97.6667 144.848 97.928 145.259 97.928C146.08 97.8533 146.789 97.1627 147.387 95.856C148.021 94.512 148.619 92.664 149.179 90.312ZM149.179 94.96C148.805 96.2667 148.413 97.4053 148.003 98.376C147.629 99.3093 147.107 100.28 146.435 101.288C145.8 102.296 144.979 103.08 143.971 103.64C143 104.163 141.861 104.424 140.555 104.424C138.464 104.424 136.803 103.696 135.571 102.24C134.376 100.747 133.835 98.992 133.947 96.976C134.096 94.9227 134.899 93.1493 136.355 91.656C137.4 90.5733 138.707 89.64 140.275 88.856C141.843 88.0347 143.224 87.4373 144.419 87.064C145.651 86.6907 146.789 86.1307 147.835 85.384C148.917 84.6 149.608 83.6107 149.907 82.416C150.205 81.184 150.149 80.0453 149.739 79C149.365 77.9173 148.544 77.32 147.275 77.208C146.64 77.1707 146.005 77.3387 145.371 77.712C144.773 78.0853 144.307 78.5707 143.971 79.168C143.672 79.728 143.616 80.4373 143.803 81.296C143.989 82.1173 144.493 82.9387 145.315 83.76C144.531 84.7307 143.467 85.384 142.123 85.72C140.779 86.0187 139.491 85.8693 138.259 85.272C137.064 84.6747 136.299 83.6667 135.963 82.248C135.701 80.232 136.915 78.496 139.603 77.04C142.552 75.472 145.819 74.9307 149.403 75.416C153.696 75.9387 156.589 77.8613 158.083 81.184C158.717 82.6027 159.035 84.2267 159.035 86.056L159.091 96.36C159.091 98.3387 159.277 99.832 159.651 100.84C160.024 101.848 160.621 102.277 161.443 102.128C162.525 101.755 162.936 100.504 162.675 98.376C162.451 96.2107 161.723 94.4 160.491 92.944C162.619 91.8613 164.261 92.1227 165.419 93.728C166.427 95.2213 166.576 97.0133 165.867 99.104C165.045 101.605 163.291 103.211 160.603 103.92C159.744 104.181 158.811 104.312 157.803 104.312C152.128 104.312 149.253 101.195 149.179 94.96ZM165.772 76.2C167.788 75.8267 169.916 75.2107 172.156 74.352C174.434 73.456 176.132 72.56 177.252 71.664V76.2H182.18V78.104C181.62 78.104 180.78 78.104 179.66 78.104C178.54 78.104 177.719 78.104 177.196 78.104C177.234 88.296 177.271 94.3813 177.308 96.36C177.308 98.3387 177.476 99.832 177.812 100.84C178.186 101.848 178.783 102.277 179.604 102.128C180.724 101.755 181.154 100.504 180.892 98.376C180.631 96.2107 179.884 94.4 178.652 92.944C180.818 91.8613 182.46 92.1227 183.58 93.728C184.626 95.2213 184.794 97.0133 184.084 99.104C183.263 101.605 181.49 103.211 178.764 103.92C177.906 104.144 176.991 104.275 176.02 104.312C170.234 104.312 167.34 101.101 167.34 94.68C167.34 93.672 167.34 92.328 167.34 90.648C167.378 88.9307 167.378 87.7173 167.34 87.008C167.34 86.2987 167.322 85.3467 167.284 84.152C167.284 82.9573 167.247 82.08 167.172 81.52C167.135 80.96 167.06 80.3067 166.948 79.56C166.836 78.8133 166.687 78.1973 166.5 77.712C166.314 77.1893 166.071 76.6853 165.772 76.2ZM197.568 103.752H185.36C186.181 101.885 186.685 99.7013 186.872 97.2C187.058 94.6613 186.984 92.384 186.648 90.368C186.349 88.3147 185.92 86.728 185.36 85.608C187.637 85.608 189.877 85.3653 192.079 84.88C194.32 84.3947 196.149 83.6667 197.568 82.696C196.746 84.7867 196.28 88.0907 196.168 92.608C196.093 97.1253 196.56 100.84 197.568 103.752ZM187.152 81.296C185.994 80.4 185.416 79.3173 185.416 78.048C185.416 76.7787 185.994 75.696 187.152 74.8C188.346 73.904 189.784 73.456 191.464 73.456C193.144 73.456 194.581 73.904 195.776 74.8C196.97 75.696 197.568 76.7787 197.568 78.048C197.568 79.3173 196.97 80.4 195.776 81.296C194.581 82.1547 193.144 82.584 191.464 82.584C189.784 82.584 188.346 82.1547 187.152 81.296ZM212.342 93C212.604 94.0453 212.921 94.9227 213.294 95.632C213.668 96.3413 214.078 96.8453 214.526 97.144C214.974 97.4053 215.46 97.312 215.982 96.864C216.505 96.3787 216.972 95.5013 217.382 94.232C218.54 90.9093 219.174 87.792 219.286 84.88C219.324 82.7147 219.156 80.9413 218.782 79.56C218.409 78.1787 217.681 77.04 216.598 76.144C218.054 75.3227 219.286 75.192 220.294 75.752C221.34 76.312 221.956 77.2827 222.142 78.664C222.441 80.9787 221.75 85.328 220.07 91.712C218.428 98.0587 216.897 101.811 215.478 102.968C214.694 103.64 213.761 104.107 212.678 104.368C211.596 104.592 210.438 104.517 209.206 104.144C208.012 103.771 207.022 103.005 206.238 101.848C205.417 100.579 204.502 98.0027 203.494 94.12C202.486 90.2373 201.497 86.504 200.526 82.92C199.556 79.2987 198.641 77.0587 197.782 76.2H210.998C210.438 76.872 210.121 78.0853 210.046 79.84C209.972 81.5573 210.158 83.4427 210.606 85.496L212.342 93ZM235.466 103.752H223.258C224.079 101.885 224.583 99.7013 224.77 97.2C224.957 94.6613 224.882 92.384 224.546 90.368C224.247 88.3147 223.818 86.728 223.258 85.608C225.535 85.608 227.775 85.3653 229.978 84.88C232.218 84.3947 234.047 83.6667 235.466 82.696C234.645 84.7867 234.178 88.0907 234.066 92.608C233.991 97.1253 234.458 100.84 235.466 103.752ZM225.05 81.296C223.893 80.4 223.314 79.3173 223.314 78.048C223.314 76.7787 223.893 75.696 225.05 74.8C226.245 73.904 227.682 73.456 229.362 73.456C231.042 73.456 232.479 73.904 233.674 74.8C234.869 75.696 235.466 76.7787 235.466 78.048C235.466 79.3173 234.869 80.4 233.674 81.296C232.479 82.1547 231.042 82.584 229.362 82.584C227.682 82.584 226.245 82.1547 225.05 81.296ZM263.53 103.752H250.874C248.372 103.789 246.114 103.117 244.098 101.736C242.119 100.355 240.476 98.5253 239.17 96.248C238.124 94.4187 237.396 92.2907 236.986 89.864C236.575 87.4373 236.668 85.0107 237.266 82.584C237.9 80.1573 239.095 78.328 240.85 77.096C242.604 75.864 244.49 75.5093 246.506 76.032C248.97 76.6667 250.93 78.9253 252.386 82.808C252.199 77.0587 251.695 73.344 250.874 71.664C252.89 71.4027 255.148 70.8987 257.65 70.152C260.188 69.368 262.148 68.584 263.53 67.8C262.708 70.376 262.279 76.368 262.242 85.776C262.204 95.1467 262.634 101.139 263.53 103.752ZM249.026 81.968C247.346 81.8933 246.412 83.2933 246.226 86.168C246.039 89.4907 246.804 93.056 248.522 96.864C249.38 98.768 250.37 100.336 251.49 101.568C252.124 98.3573 252.46 93.8587 252.498 88.072C252.348 86.9147 252.106 85.888 251.77 84.992C251.434 84.0587 251.023 83.3307 250.538 82.808C250.09 82.2853 249.586 82.0053 249.026 81.968ZM279.827 90.312C279.864 88.744 279.883 87.624 279.883 86.952C279.808 86.9893 279.603 87.176 279.267 87.512C278.968 87.848 278.763 88.072 278.651 88.184C278.576 88.2587 278.39 88.464 278.091 88.8C277.83 89.0987 277.643 89.3413 277.531 89.528C277.419 89.6773 277.232 89.92 276.971 90.256C276.71 90.5547 276.523 90.816 276.411 91.04C276.299 91.264 276.15 91.5627 275.963 91.936C275.776 92.272 275.627 92.5893 275.515 92.888C275.403 93.1867 275.291 93.5227 275.179 93.896C275.104 94.2693 275.03 94.6427 274.955 95.016C274.806 95.912 274.824 96.6213 275.011 97.144C275.198 97.6667 275.496 97.928 275.907 97.928C276.728 97.8533 277.438 97.1627 278.035 95.856C278.67 94.512 279.267 92.664 279.827 90.312ZM279.827 94.96C279.454 96.2667 279.062 97.4053 278.651 98.376C278.278 99.3093 277.755 100.28 277.083 101.288C276.448 102.296 275.627 103.08 274.619 103.64C273.648 104.163 272.51 104.424 271.203 104.424C269.112 104.424 267.451 103.696 266.219 102.24C265.024 100.747 264.483 98.992 264.595 96.976C264.744 94.9227 265.547 93.1493 267.003 91.656C268.048 90.5733 269.355 89.64 270.923 88.856C272.491 88.0347 273.872 87.4373 275.067 87.064C276.299 86.6907 277.438 86.1307 278.483 85.384C279.566 84.6 280.256 83.6107 280.555 82.416C280.854 81.184 280.798 80.0453 280.387 79C280.014 77.9173 279.192 77.32 277.923 77.208C277.288 77.1707 276.654 77.3387 276.019 77.712C275.422 78.0853 274.955 78.5707 274.619 79.168C274.32 79.728 274.264 80.4373 274.451 81.296C274.638 82.1173 275.142 82.9387 275.963 83.76C275.179 84.7307 274.115 85.384 272.771 85.72C271.427 86.0187 270.139 85.8693 268.907 85.272C267.712 84.6747 266.947 83.6667 266.611 82.248C266.35 80.232 267.563 78.496 270.251 77.04C273.2 75.472 276.467 74.9307 280.051 75.416C284.344 75.9387 287.238 77.8613 288.731 81.184C289.366 82.6027 289.683 84.2267 289.683 86.056L289.739 96.36C289.739 98.3387 289.926 99.832 290.299 100.84C290.672 101.848 291.27 102.277 292.091 102.128C293.174 101.755 293.584 100.504 293.323 98.376C293.099 96.2107 292.371 94.4 291.139 92.944C293.267 91.8613 294.91 92.1227 296.067 93.728C297.075 95.2213 297.224 97.0133 296.515 99.104C295.694 101.605 293.939 103.211 291.251 103.92C290.392 104.181 289.459 104.312 288.451 104.312C282.776 104.312 279.902 101.195 279.827 94.96ZM323.467 103.752H310.811C308.31 103.789 306.051 103.117 304.035 101.736C302.057 100.355 300.414 98.5253 299.107 96.248C298.062 94.4187 297.334 92.2907 296.923 89.864C296.513 87.4373 296.606 85.0107 297.203 82.584C297.838 80.1573 299.033 78.328 300.787 77.096C302.542 75.864 304.427 75.5093 306.443 76.032C308.907 76.6667 310.867 78.9253 312.323 82.808C312.137 77.0587 311.633 73.344 310.811 71.664C312.827 71.4027 315.086 70.8987 317.587 70.152C320.126 69.368 322.086 68.584 323.467 67.8C322.646 70.376 322.217 76.368 322.179 85.776C322.142 95.1467 322.571 101.139 323.467 103.752ZM308.963 81.968C307.283 81.8933 306.35 83.2933 306.163 86.168C305.977 89.4907 306.742 93.056 308.459 96.864C309.318 98.768 310.307 100.336 311.427 101.568C312.062 98.3573 312.398 93.8587 312.435 88.072C312.286 86.9147 312.043 85.888 311.707 84.992C311.371 84.0587 310.961 83.3307 310.475 82.808C310.027 82.2853 309.523 82.0053 308.963 81.968ZM350.461 94.344C350.349 95.2773 350.106 96.1733 349.733 97.032C349.397 97.8533 348.967 98.6187 348.445 99.328C347.922 100.037 347.306 100.691 346.597 101.288C345.925 101.885 345.159 102.408 344.301 102.856C343.479 103.304 342.602 103.659 341.669 103.92C337.935 104.928 334.445 104.443 331.197 102.464C329.33 101.344 327.837 99.888 326.717 98.096C325.634 96.2667 324.962 94.3813 324.701 92.44C324.477 90.4987 324.607 88.5387 325.093 86.56C325.578 84.544 326.362 82.752 327.445 81.184C328.565 79.5787 330.039 78.2907 331.869 77.32C333.698 76.312 335.695 75.808 337.861 75.808C341.221 75.808 344.114 77.0027 346.541 79.392C348.967 81.7813 350.33 84.7493 350.629 88.296H332.149C333.082 90.1253 334.389 91.6747 336.069 92.944C337.786 94.176 339.877 94.9973 342.341 95.408C344.805 95.8187 347.511 95.464 350.461 94.344ZM331.477 79.392C330.767 79.5413 330.375 80.2693 330.301 81.576C330.226 82.8453 330.562 84.4507 331.309 86.392H338.869C338.159 84.3387 337.021 82.6027 335.453 81.184C333.885 79.7653 332.559 79.168 331.477 79.392Z" fill="white"/>
</g>
<defs>
<filter id="filter0_d_131_7" x="0" y="0" width="356" height="139" filterUnits="userSpaceOnUse" color-interpolation-filters="sRGB">
<feFlood flood-opacity="0" result="BackgroundImageFix"/>
<feColorMatrix in="SourceAlpha" type="matrix" values="0 0 0 0 0 0 0 0 0 0 0 0 0 0 0 0 0 0 127 0" result="hardAlpha"/>
<feOffset dy="4"/>
<feGaussianBlur stdDeviation="2"/>
<feComposite in2="hardAlpha" operator="out"/>
<feColorMatrix type="matrix" values="0 0 0 0 0 0 0 0 0 0 0 0 0 0 0 0 0 0 0.25 0"/>
<feBlend mode="normal" in2="BackgroundImageFix" result="effect1_dropShadow_131_7"/>
<feBlend mode="normal" in="SourceGraphic" in2="effect1_dropShadow_131_7" result="shape"/>
</filter>
</defs>
</svg>
