<svg width="345" height="54" viewBox="0 0 345 54" fill="none" xmlns="http://www.w3.org/2000/svg">
<path d="M29.646 43.874C24.642 43.154 20.61 43.208 17.55 44.036C18.162 42.308 18.522 40.418 18.63 38.366C18.99 32.174 19.08 25.586 18.9 18.602C18.756 13.202 18.252 9.728 17.388 8.18C19.296 8 21.456 7.622 23.868 7.046C26.316 6.434 28.224 5.804 29.592 5.156C28.836 7.028 28.404 11.312 28.296 18.008C28.296 20.204 28.296 22.526 28.296 24.974C28.368 30.302 28.44 33.902 28.512 35.774C28.692 39.626 29.07 42.326 29.646 43.874ZM33.048 0.835999C36.36 1.124 39.276 1.826 41.796 2.942C44.352 4.022 46.314 5.354 47.682 6.938C49.086 8.522 50.058 10.232 50.598 12.068C51.174 13.868 51.282 15.686 50.922 17.522C50.49 19.25 49.77 20.798 48.762 22.166C47.754 23.534 46.566 24.668 45.198 25.568C43.83 26.432 42.282 27.152 40.554 27.728C38.862 28.304 37.116 28.7 35.316 28.916C33.516 29.096 31.662 29.15 29.754 29.078V28.214C32.166 27.278 34.2 26.054 35.856 24.542C37.512 22.994 38.682 21.392 39.366 19.736C40.05 18.044 40.356 16.298 40.284 14.498C40.248 12.698 39.834 11.06 39.042 9.584C38.25 8.072 37.08 6.776 35.532 5.696C33.984 4.616 32.184 3.914 30.132 3.59C28.332 3.302 26.478 3.356 24.57 3.752C22.698 4.112 20.916 4.832 19.224 5.912C17.532 6.956 16.02 8.234 14.688 9.746C13.392 11.258 12.402 13.112 11.718 15.308C11.07 17.468 10.854 19.79 11.07 22.274C11.25 24.506 11.844 26.522 12.852 28.322C13.896 30.086 15.3 31.418 17.064 32.318V32.372C13.572 33.38 10.584 33.56 8.1 32.912C5.616 32.264 3.69 31.04 2.322 29.24C0.954 27.404 0.234 25.244 0.162 22.76C0.09 19.844 0.648 17.126 1.836 14.606C3.024 12.05 4.68 9.89 6.804 8.126C8.964 6.326 11.43 4.814 14.202 3.59C17.01 2.366 20.034 1.52 23.274 1.052C26.514 0.583998 29.772 0.511999 33.048 0.835999ZM63.2922 23.894C63.1482 24.794 63.0402 26.108 62.9682 27.836C62.8962 29.528 62.8782 31.328 62.9142 33.236C62.9502 35.108 63.0942 36.98 63.3462 38.852C63.5982 40.688 63.9222 42.11 64.3182 43.118H52.0602C52.8882 41.318 53.3922 38.636 53.5722 35.072C53.7882 31.508 53.7342 28.196 53.4102 25.136C53.0862 22.04 52.6362 19.97 52.0602 18.926C55.8402 18.566 59.4582 17.774 62.9142 16.55V19.358C63.1662 18.962 63.4362 18.62 63.7242 18.332C65.2002 16.892 66.9822 16.19 69.0702 16.226C71.0862 16.298 72.7602 17.18 74.0922 18.872C75.4602 20.564 76.1622 22.49 76.1982 24.65C76.1982 26.234 75.8382 27.602 75.1182 28.754C74.4342 29.87 73.5522 30.68 72.4722 31.184C71.4282 31.652 70.2762 31.868 69.0162 31.832C67.7922 31.76 66.6582 31.418 65.6142 30.806C66.5502 30.122 67.1802 28.988 67.5042 27.404C67.8642 25.784 67.8642 24.272 67.5042 22.868C67.1802 21.464 66.6042 20.69 65.7762 20.546C64.5882 20.294 63.7602 21.41 63.2922 23.894ZM78.4375 25.19C79.3375 21.626 81.2995 19.034 84.3235 17.414C87.3475 15.794 90.5515 15.614 93.9355 16.874C97.3555 18.134 99.9475 20.456 101.712 23.84C103.476 27.224 103.908 30.698 103.008 34.262C102.108 37.79 100.146 40.364 97.1215 41.984C94.0975 43.604 90.8755 43.784 87.4555 42.524C84.0715 41.264 81.4975 38.942 79.7335 35.558C77.9695 32.174 77.5375 28.718 78.4375 25.19ZM93.3955 28.268C91.8835 25.28 90.3175 22.922 88.6975 21.194C87.1135 19.466 85.9435 18.8 85.1875 19.196C84.4315 19.592 84.3235 20.942 84.8635 23.246C85.4035 25.514 86.4475 28.142 87.9955 31.13C89.5435 34.082 91.1095 36.44 92.6935 38.204C94.3135 39.932 95.5015 40.598 96.2575 40.202C96.9775 39.806 97.0675 38.456 96.5275 36.152C96.0235 33.848 94.9795 31.22 93.3955 28.268ZM106.263 50.192C105.543 49.544 105.039 48.788 104.751 47.924C104.463 47.06 104.463 46.196 104.751 45.332C105.075 44.468 105.723 43.766 106.695 43.226C107.379 42.866 108.171 42.65 109.071 42.578C110.007 42.506 110.907 42.578 111.771 42.794C112.635 43.01 113.409 43.442 114.093 44.09C114.813 44.702 115.299 45.458 115.551 46.358C114.363 46.718 113.751 47.348 113.715 48.248C113.715 49.256 114.435 49.994 115.875 50.462C116.775 50.75 117.855 50.876 119.115 50.84C120.663 50.804 121.797 50.372 122.517 49.544C123.273 48.68 123.507 47.744 123.219 46.736C122.931 45.692 122.211 44.882 121.059 44.306C120.267 43.91 119.133 43.55 117.657 43.226C116.181 42.866 114.831 42.578 113.607 42.362C112.419 42.11 111.231 41.66 110.043 41.012C108.855 40.364 107.991 39.518 107.451 38.474C106.911 37.502 106.821 36.458 107.181 35.342C107.541 34.226 108.333 33.308 109.557 32.588C107.901 31.508 106.659 30.176 105.831 28.592C105.003 26.972 104.643 25.388 104.751 23.84C104.895 22.292 105.651 20.852 107.019 19.52C108.423 18.152 110.349 17.18 112.797 16.604C117.045 15.596 120.879 16.136 124.299 18.224C125.595 16.352 127.161 15.128 128.997 14.552C130.869 13.94 132.543 14.282 134.019 15.578C134.703 16.298 135.045 17.126 135.045 18.062C135.045 18.998 134.739 19.772 134.127 20.384C133.551 20.996 132.795 21.446 131.859 21.734C130.959 21.986 129.951 21.824 128.835 21.248C129.267 20.42 129.339 19.718 129.051 19.142C128.799 18.566 128.367 18.278 127.755 18.278C127.179 18.242 126.603 18.404 126.027 18.764C125.883 18.908 125.757 19.052 125.649 19.196C126.909 20.168 127.917 21.284 128.673 22.544C129.429 23.804 129.843 25.082 129.915 26.378C130.023 27.674 129.807 28.916 129.267 30.104C128.763 31.256 127.773 32.264 126.297 33.128C124.857 33.992 123.021 34.568 120.789 34.856C117.261 35.288 114.093 34.856 111.285 33.56C110.817 33.956 110.637 34.424 110.745 34.964C110.889 35.504 111.285 35.954 111.933 36.314C112.509 36.638 113.229 36.836 114.093 36.908C114.957 36.98 115.839 36.962 116.739 36.854C117.639 36.746 118.647 36.638 119.763 36.53C120.879 36.422 121.941 36.35 122.949 36.314C123.957 36.242 125.019 36.314 126.135 36.53C127.251 36.746 128.259 37.124 129.159 37.664C131.355 38.96 132.579 40.85 132.831 43.334C133.083 45.782 132.219 47.888 130.239 49.652C128.763 50.948 126.351 51.884 123.003 52.46C119.691 53 116.397 53.072 113.121 52.676C109.881 52.244 107.595 51.416 106.263 50.192ZM120.087 25.082C119.115 23.174 117.945 21.536 116.577 20.168C115.245 18.764 114.111 18.188 113.175 18.44C112.347 18.692 112.023 19.646 112.203 21.302C112.383 22.922 112.977 24.668 113.985 26.54C115.245 28.916 116.523 30.644 117.819 31.724C119.115 32.804 120.141 33.182 120.897 32.858C121.365 32.642 121.671 32.21 121.815 31.562C121.959 30.914 121.887 30.032 121.599 28.916C121.311 27.764 120.807 26.486 120.087 25.082ZM147.298 23.894C147.154 24.794 147.046 26.108 146.974 27.836C146.902 29.528 146.884 31.328 146.92 33.236C146.956 35.108 147.1 36.98 147.352 38.852C147.604 40.688 147.928 42.11 148.324 43.118H136.066C136.894 41.318 137.398 38.636 137.578 35.072C137.794 31.508 137.74 28.196 137.416 25.136C137.092 22.04 136.642 19.97 136.066 18.926C139.846 18.566 143.464 17.774 146.92 16.55V19.358C147.172 18.962 147.442 18.62 147.73 18.332C149.206 16.892 150.988 16.19 153.076 16.226C155.092 16.298 156.766 17.18 158.098 18.872C159.466 20.564 160.168 22.49 160.204 24.65C160.204 26.234 159.844 27.602 159.124 28.754C158.44 29.87 157.558 30.68 156.478 31.184C155.434 31.652 154.282 31.868 153.022 31.832C151.798 31.76 150.664 31.418 149.62 30.806C150.556 30.122 151.186 28.988 151.51 27.404C151.87 25.784 151.87 24.272 151.51 22.868C151.186 21.464 150.61 20.69 149.782 20.546C148.594 20.294 147.766 21.41 147.298 23.894ZM175.379 30.158C175.415 28.646 175.433 27.566 175.433 26.918C175.361 26.954 175.163 27.134 174.839 27.458C174.551 27.782 174.353 27.998 174.245 28.106C174.173 28.178 173.993 28.376 173.705 28.7C173.453 28.988 173.273 29.222 173.165 29.402C173.057 29.546 172.877 29.78 172.625 30.104C172.373 30.392 172.193 30.644 172.085 30.86C171.977 31.076 171.833 31.364 171.653 31.724C171.473 32.048 171.329 32.354 171.221 32.642C171.113 32.93 171.005 33.254 170.897 33.614C170.825 33.974 170.753 34.334 170.681 34.694C170.537 35.558 170.555 36.242 170.735 36.746C170.915 37.25 171.203 37.502 171.599 37.502C172.139 37.466 172.661 37.088 173.165 36.368C173.669 35.612 174.065 34.766 174.353 33.83C174.677 32.858 175.019 31.634 175.379 30.158ZM197.789 30.698C197.825 36.71 198.293 40.85 199.193 43.118C196.889 42.218 193.073 42.146 187.745 42.902C186.629 43.046 185.675 43.154 184.883 43.226C184.091 43.298 183.227 43.334 182.291 43.334C181.391 43.298 180.635 43.19 180.023 43.01C179.411 42.83 178.781 42.542 178.133 42.146C177.521 41.714 177.017 41.174 176.621 40.526C176.261 39.878 175.955 39.068 175.703 38.096C175.487 37.088 175.379 35.936 175.379 34.64C175.019 35.9 174.641 36.998 174.245 37.934C173.885 38.834 173.381 39.77 172.733 40.742C172.121 41.714 171.329 42.47 170.357 43.01C169.421 43.514 168.323 43.766 167.062 43.766C165.047 43.766 163.445 43.064 162.257 41.66C161.105 40.22 160.583 38.528 160.691 36.584C160.835 34.604 161.609 32.894 163.013 31.454C164.021 30.41 165.281 29.51 166.793 28.754C168.305 27.962 169.637 27.386 170.789 27.026C171.977 26.666 173.075 26.126 174.083 25.406C175.127 24.65 175.793 23.696 176.081 22.544C176.369 21.356 176.315 20.258 175.919 19.25C175.523 18.206 174.731 17.648 173.543 17.576C172.931 17.504 172.319 17.648 171.707 18.008C171.131 18.368 170.681 18.836 170.357 19.412C170.033 19.952 169.961 20.636 170.141 21.464C170.357 22.256 170.861 23.048 171.653 23.84C170.897 24.776 169.871 25.406 168.575 25.73C167.279 26.018 166.037 25.874 164.849 25.298C163.697 24.722 162.959 23.75 162.635 22.382C162.383 20.438 163.553 18.782 166.145 17.414C168.989 15.902 172.139 15.362 175.595 15.794C179.735 16.298 182.525 18.152 183.965 21.356C184.577 22.76 184.883 24.326 184.883 26.054L184.937 35.99C184.937 39.914 185.837 41.678 187.637 41.282C188.681 41.066 189.851 40.184 191.147 38.636C192.479 37.052 193.595 35.45 194.495 33.83C195.395 32.174 196.079 30.662 196.547 29.294C196.799 28.682 197.123 27.746 197.519 26.486C197.951 25.19 198.347 24.074 198.707 23.138C199.103 22.166 199.535 21.248 200.003 20.384C200.867 18.8 201.893 17.648 203.081 16.928C203.729 16.532 204.467 16.28 205.295 16.172C206.123 16.028 206.969 16.082 207.833 16.334C208.733 16.55 209.543 16.964 210.263 17.576C210.983 18.152 211.577 19.052 212.045 20.276C212.513 21.464 212.747 22.886 212.747 24.542C212.747 24.758 212.747 25.172 212.747 25.784C212.747 26.36 212.747 26.81 212.747 27.134C213.431 24.542 214.187 22.4 215.015 20.708C215.879 18.98 216.959 17.72 218.255 16.928C218.831 16.604 219.443 16.388 220.09 16.28C220.775 16.136 221.477 16.1 222.197 16.172C222.917 16.208 223.619 16.424 224.303 16.82C224.987 17.18 225.599 17.684 226.139 18.332C226.715 18.944 227.165 19.79 227.489 20.87C227.813 21.914 227.975 23.138 227.975 24.542C227.975 24.758 227.975 25.244 227.975 26C227.975 26.72 227.975 27.368 227.975 27.944C227.975 28.52 227.975 29.258 227.975 30.158C227.975 31.058 227.975 31.904 227.975 32.696C228.011 33.452 228.047 34.28 228.083 35.18C228.119 36.08 228.173 36.908 228.245 37.664C228.317 38.42 228.407 39.158 228.515 39.878C228.623 40.562 228.749 41.192 228.893 41.768C229.037 42.308 229.199 42.758 229.379 43.118H217.553C218.021 42.47 218.417 40.472 218.741 37.124C219.065 33.74 219.101 30.446 218.849 27.242C218.597 24.002 218.003 22.346 217.066 22.274C216.275 22.238 215.573 22.904 214.961 24.272C214.349 25.64 213.755 27.494 213.179 29.834C213.035 30.446 212.909 31.058 212.801 31.67C212.909 37.718 213.359 41.534 214.151 43.118H202.379C202.703 42.65 202.991 41.318 203.243 39.122C203.531 36.89 203.711 34.55 203.783 32.102C203.855 29.618 203.729 27.386 203.405 25.406C203.081 23.39 202.559 22.346 201.839 22.274C201.515 22.238 201.173 22.364 200.813 22.652C200.489 22.94 200.183 23.39 199.895 24.002C199.643 24.578 199.409 25.118 199.193 25.622C198.977 26.126 198.761 26.792 198.545 27.62C198.329 28.412 198.185 28.988 198.113 29.348C198.041 29.672 197.933 30.122 197.789 30.698ZM197.789 20.762C197.465 22.454 196.871 24.506 196.007 26.918C195.143 29.294 193.973 31.724 192.497 34.208C191.021 36.656 189.563 38.204 188.123 38.852C188.627 35.288 188.735 31.4 188.447 27.188C188.159 22.976 187.673 20.222 186.989 18.926C190.733 18.566 194.333 17.774 197.789 16.55V20.762ZM244.935 30.158C244.971 28.646 244.989 27.566 244.989 26.918C244.917 26.954 244.719 27.134 244.395 27.458C244.107 27.782 243.909 27.998 243.801 28.106C243.729 28.178 243.549 28.376 243.261 28.7C243.009 28.988 242.829 29.222 242.721 29.402C242.613 29.546 242.433 29.78 242.181 30.104C241.929 30.392 241.749 30.644 241.641 30.86C241.533 31.076 241.389 31.364 241.209 31.724C241.029 32.048 240.885 32.354 240.777 32.642C240.669 32.93 240.561 33.254 240.453 33.614C240.381 33.974 240.309 34.334 240.237 34.694C240.093 35.558 240.111 36.242 240.291 36.746C240.471 37.25 240.759 37.502 241.155 37.502C241.947 37.43 242.631 36.764 243.207 35.504C243.819 34.208 244.395 32.426 244.935 30.158ZM244.935 34.64C244.575 35.9 244.197 36.998 243.801 37.934C243.441 38.834 242.937 39.77 242.289 40.742C241.677 41.714 240.885 42.47 239.913 43.01C238.977 43.514 237.879 43.766 236.619 43.766C234.603 43.766 233.001 43.064 231.813 41.66C230.661 40.22 230.139 38.528 230.247 36.584C230.391 34.604 231.165 32.894 232.569 31.454C233.577 30.41 234.837 29.51 236.349 28.754C237.861 27.962 239.193 27.386 240.345 27.026C241.533 26.666 242.631 26.126 243.639 25.406C244.683 24.65 245.349 23.696 245.637 22.544C245.925 21.356 245.871 20.258 245.475 19.25C245.115 18.206 244.323 17.63 243.099 17.522C242.487 17.486 241.875 17.648 241.263 18.008C240.687 18.368 240.237 18.836 239.913 19.412C239.625 19.952 239.571 20.636 239.751 21.464C239.931 22.256 240.417 23.048 241.209 23.84C240.453 24.776 239.427 25.406 238.131 25.73C236.835 26.018 235.593 25.874 234.405 25.298C233.253 24.722 232.515 23.75 232.191 22.382C231.939 20.438 233.109 18.764 235.701 17.36C238.545 15.848 241.695 15.326 245.151 15.794C249.291 16.298 252.081 18.152 253.521 21.356C254.133 22.724 254.439 24.29 254.439 26.054L254.493 35.99C254.493 37.898 254.673 39.338 255.033 40.31C255.393 41.282 255.969 41.696 256.761 41.552C257.805 41.192 258.201 39.986 257.949 37.934C257.733 35.846 257.031 34.1 255.843 32.696C257.895 31.652 259.479 31.904 260.595 33.452C261.567 34.892 261.711 36.62 261.027 38.636C260.235 41.048 258.543 42.596 255.951 43.28C255.123 43.532 254.223 43.658 253.251 43.658C247.779 43.658 245.007 40.652 244.935 34.64ZM268.262 19.628C267.29 19.844 266.93 20.978 267.182 23.03C267.506 25.874 268.712 28.484 270.8 30.86C274.256 34.748 278.702 36.062 284.138 34.802C284.93 34.622 285.74 34.37 286.568 34.046C286.28 36.278 285.362 38.222 283.814 39.878C282.266 41.498 280.358 42.632 278.09 43.28C277.154 43.532 276.182 43.676 275.174 43.712L274.472 44.684C275.48 44.756 276.344 45.062 277.064 45.602C277.712 46.07 278.126 46.628 278.306 47.276C278.45 47.888 278.378 48.5 278.09 49.112C277.838 49.688 277.442 50.156 276.902 50.516C276.398 50.876 275.858 51.128 275.282 51.272C274.706 51.416 274.13 51.344 273.554 51.056C273.014 50.732 272.618 50.192 272.366 49.436C273.662 49.364 274.706 49.094 275.498 48.626C276.326 48.122 276.722 47.672 276.686 47.276C276.686 46.844 276.218 46.61 275.282 46.574C274.346 46.502 273.392 46.664 272.42 47.06L271.232 45.44L272.69 43.604C270.998 43.352 269.432 42.776 267.992 41.876C266.444 40.94 265.148 39.77 264.104 38.366C263.096 36.926 262.412 35.414 262.052 33.83C261.728 32.246 261.602 30.626 261.674 28.97C261.746 27.278 262.124 25.676 262.808 24.164C263.528 22.652 264.392 21.302 265.4 20.114C266.444 18.89 267.758 17.936 269.342 17.252C270.926 16.532 272.618 16.172 274.418 16.172C277.046 16.172 278.81 17.054 279.71 18.818C280.61 20.582 280.592 22.364 279.656 24.164C278.756 25.928 277.388 26.81 275.552 26.81C275.048 24.83 273.968 23.084 272.312 21.572C270.692 20.06 269.342 19.412 268.262 19.628ZM301.308 30.158C301.344 28.646 301.362 27.566 301.362 26.918C301.29 26.954 301.092 27.134 300.768 27.458C300.48 27.782 300.282 27.998 300.174 28.106C300.102 28.178 299.922 28.376 299.634 28.7C299.382 28.988 299.202 29.222 299.094 29.402C298.986 29.546 298.806 29.78 298.554 30.104C298.302 30.392 298.122 30.644 298.014 30.86C297.906 31.076 297.762 31.364 297.582 31.724C297.402 32.048 297.258 32.354 297.15 32.642C297.042 32.93 296.934 33.254 296.826 33.614C296.754 33.974 296.682 34.334 296.61 34.694C296.466 35.558 296.484 36.242 296.664 36.746C296.844 37.25 297.132 37.502 297.528 37.502C298.32 37.43 299.004 36.764 299.58 35.504C300.192 34.208 300.768 32.426 301.308 30.158ZM297.906 11.312C296.934 11.024 296.07 11.204 295.314 11.852C294.594 12.5 294.252 13.418 294.288 14.606C293.784 14.39 293.388 14.066 293.1 13.634C292.848 13.166 292.722 12.68 292.722 12.176C292.758 11.672 292.866 11.186 293.046 10.718C293.226 10.25 293.514 9.836 293.91 9.476C294.342 9.116 294.828 8.9 295.368 8.828C296.196 8.684 297.384 9.08 298.932 10.016C300.48 10.952 301.452 11.492 301.848 11.636C302.82 11.924 303.666 11.744 304.386 11.096C305.106 10.448 305.466 9.53 305.466 8.342C306.294 8.702 306.78 9.332 306.924 10.232C307.104 11.096 306.942 11.924 306.438 12.716C305.97 13.508 305.268 13.976 304.332 14.12C303.864 14.192 303.324 14.12 302.712 13.904C302.136 13.688 301.596 13.418 301.092 13.094C300.624 12.77 300.084 12.428 299.472 12.068C298.86 11.708 298.338 11.456 297.906 11.312ZM301.308 34.64C300.948 35.9 300.57 36.998 300.174 37.934C299.814 38.834 299.31 39.77 298.662 40.742C298.05 41.714 297.258 42.47 296.286 43.01C295.35 43.514 294.252 43.766 292.992 43.766C290.976 43.766 289.374 43.064 288.186 41.66C287.034 40.22 286.512 38.528 286.62 36.584C286.764 34.604 287.538 32.894 288.942 31.454C289.95 30.41 291.21 29.51 292.722 28.754C294.234 27.962 295.566 27.386 296.718 27.026C297.906 26.666 299.004 26.126 300.012 25.406C301.056 24.65 301.722 23.696 302.01 22.544C302.298 21.356 302.244 20.258 301.848 19.25C301.488 18.206 300.696 17.63 299.472 17.522C299.112 17.522 298.752 17.576 298.392 17.684C298.032 17.756 297.69 17.9 297.366 18.116C297.078 18.332 296.808 18.602 296.556 18.926C296.34 19.214 296.178 19.556 296.07 19.952C295.998 20.312 295.98 20.708 296.016 21.14C296.052 21.536 296.196 21.968 296.448 22.436C296.736 22.904 297.114 23.372 297.582 23.84C296.826 24.776 295.8 25.406 294.504 25.73C293.208 26.018 291.966 25.874 290.778 25.298C289.626 24.722 288.888 23.75 288.564 22.382C288.312 20.438 289.482 18.764 292.074 17.36C294.918 15.848 298.068 15.326 301.524 15.794C305.664 16.298 308.454 18.152 309.894 21.356C310.506 22.724 310.812 24.29 310.812 26.054L310.866 35.99C310.866 37.898 311.046 39.338 311.406 40.31C311.766 41.282 312.342 41.696 313.134 41.552C314.178 41.192 314.574 39.986 314.322 37.934C314.106 35.846 313.404 34.1 312.216 32.696C314.268 31.652 315.852 31.904 316.968 33.452C317.94 34.892 318.084 36.62 317.4 38.636C316.608 41.048 314.916 42.596 312.324 43.28C311.496 43.532 310.596 43.658 309.624 43.658C304.152 43.658 301.38 40.652 301.308 34.64ZM318.695 25.19C319.595 21.626 321.557 19.034 324.581 17.414C327.605 15.794 330.809 15.614 334.193 16.874C337.613 18.134 340.205 20.456 341.969 23.84C343.733 27.224 344.165 30.698 343.265 34.262C342.365 37.79 340.403 40.364 337.379 41.984C334.355 43.604 331.133 43.784 327.713 42.524C324.329 41.264 321.755 38.942 319.991 35.558C318.227 32.174 317.795 28.718 318.695 25.19ZM333.653 28.268C332.141 25.28 330.575 22.922 328.955 21.194C327.371 19.466 326.201 18.8 325.445 19.196C324.689 19.592 324.581 20.942 325.121 23.246C325.661 25.514 326.705 28.142 328.253 31.13C329.801 34.082 331.367 36.44 332.951 38.204C334.571 39.932 335.759 40.598 336.515 40.202C337.235 39.806 337.325 38.456 336.785 36.152C336.281 33.848 335.237 31.22 333.653 28.268Z" fill="white"/>
</svg>
